<?xml version="1.0" encoding="UTF-8"?>
<svg width="68px" height="68px" viewBox="0 0 68 68" version="1.1" xmlns="http://www.w3.org/2000/svg" xmlns:xlink="http://www.w3.org/1999/xlink">
    <!-- Generator: Sketch 59.1 (86144) - https://sketch.com -->
    <title>BootIcon</title>
    <desc>Created with Sketch.</desc>
    <defs>
        <polygon id="path-1" points="0.0497732849 0.00397626312 7.06582992 12.9105233 35.228996 12.1216024 36.9899035 9.48153883 40.7317643 9.48153883 42.6235099 8.33799077 43.9643299 3.18068307"></polygon>
    </defs>
    <g id="Page-1" stroke="none" stroke-width="1" fill="none" fill-rule="evenodd">
        <g id="BootIcon">
            <g id="Group-23">
                <g id="Boot-Icon-Copy">
                    <circle id="Oval" fill="#E4F5F0" cx="34" cy="34" r="34"></circle>
                    <path d="M54.1159898,7 C39.0785176,11.0296376 28,24.7905844 28,41.1542192 C28,51.8984988 32.7814533,61.5160569 40.3175736,68 C56.073372,65.0380771 68,51.1683076 68,34.4943216 C68,23.20766 62.5331312,13.2062254 54.1159898,7 Z" id="Shape" fill="#FFFFF4" opacity="0.300000012"></path>
                    <path d="M47,40.6681212 C47,48.2146131 52.4732054,54.5117468 59.7595821,56 C64.8984759,50.0525958 68,42.376708 68,33.991346 C68,31.04809 67.6180274,28.1918991 66.9006476,25.4668401 C65.6707754,25.1729285 64.3924204,25 63.0695545,25 C54.1946156,25 47,32.0147535 47,40.6681212 Z" id="Shape" fill="#FFFFF4" opacity="0.400000006"></path>
                    <path d="M24,9 C24,7.84029098 25.2053766,6.90002193 26.692378,6.90002193 C26.916778,6.90002193 27.1313359,6.92765755 27.3397073,6.96801433 C28.0422929,6.37626115 29.0383139,6 30.1538462,6 C32.2780535,6 34,7.34306916 34,8.99989033 L24,8.99989033 L24,9 Z" id="Shape" fill="#FFFFFF" opacity="0.600000024"></path>
                    <path d="M53,12 C53,10.8402834 52.1561569,9.90003059 51.1153529,9.90003059 C50.9581961,9.90003059 50.8080392,9.92771207 50.6621373,9.96808728 C50.1703529,9.37637643 49.473098,9 48.6922549,9 C47.2053725,9.00015294 46,10.3432402 46,12 L53,12 Z" id="Shape" fill="#FFFFFF" opacity="0.600000024"></path>
                    <path d="M23.9999487,15.6 C23.6851539,15.6 23.3877185,15.6495353 23.1025851,15.7214872 C22.1994806,14.6828868 20.7012319,14 19,14 C17.2987681,14 15.8005194,14.6828868 14.8974149,15.7214872 C14.6122815,15.6495353 14.3148461,15.6 14.0000513,15.6 C12.3432433,15.6 11,16.6744669 11,18 L27,18 C26.9998633,16.6745763 25.6567567,15.6 23.9999487,15.6 Z" id="Shape" fill="#FFFFFF"></path>
                    <path d="M32.6259509,67.641207 C47.5182564,67.641207 60.5004213,58.2061743 65.102863,44.9023019 C66.3045702,41.4286327 66.8698371,37.5938971 66.8698371,33.7125407 C66.8698371,33.3582527 66.8692559,32.9872103 66.8584964,32.6355741 C45.8299636,32.7318365 36.0405786,47.4870963 1.63142367,47.4870963 C6.70895689,59.2842571 18.8322154,67.641207 32.6259509,67.641207 Z" id="Shape" fill="#AED3D5" transform="translate(34.250630, 50.138391) rotate(4.000000) translate(-34.250630, -50.138391) "></path>
                    <path d="M61.9514443,37.5359886 C47.0804367,37.6075151 25.520697,57.734673 4.71082911,59.3871684 C7.85866547,62.3124517 11.4821372,64.7178528 15.5564013,66.3207588 C19.3274231,67.8043625 23.4865635,68.5934061 27.9657649,68.6408636 C46.013877,68.8320846 60.8093507,54.8428102 61.9514443,37.5359886 Z" id="Shape" fill="#CAE3DD" transform="translate(33.331137, 53.089395) rotate(18.000000) translate(-33.331137, -53.089395) "></path>
                </g>
                <path d="M57,41 L57,32.8605627 L46,32 C46.817008,34.5629071 47.2905654,36.3473384 47.4206722,37.3532939 C47.550779,38.3592493 47.550779,39.4139937 47.4206722,40.517527 L57,41 Z" id="Path-12-Copy" fill="#E8F2C7"></path>
                <polygon id="Path-13-Copy" fill="#B1BB93" points="46.3444651 32 41 32.5248482 42.709955 38.5303599 42.709955 40.5843673 48 41 48 37.6566821"></polygon>
                <polygon id="Rectangle-Copy-66" fill="#7AACA2" transform="translate(44.218127, 35.586506) rotate(-10.000000) translate(-44.218127, -35.586506) " points="42 33 46.0260054 33.3218083 46.4362533 38.1730115 42.4682667 37.7441814"></polygon>
                <polygon id="Path-15-Copy" fill="#7AACA2" points="57 33 57 32.0496858 45.6419351 31 41 31.678293 41 32.5982269 42.0638833 32.5982269 46.6539521 32.0492572"></polygon>
                <g id="Boot-Copy-3" transform="translate(16.000000, 35.000000)">
                    <rect id="Rectangle" fill="#7AACA2" x="17" y="2" width="1" height="3"></rect>
                    <rect id="Rectangle-Copy-55" fill="#7AACA2" x="10" y="2" width="1" height="3"></rect>
                    <rect id="Rectangle-Copy-52" fill="#7AACA2" x="1" y="1" width="1" height="3"></rect>
                    <polygon id="Rectangle-Copy-53" fill="#7AACA2" transform="translate(9.603764, 1.765306) scale(-1, 1) rotate(267.000000) translate(-9.603764, -1.765306) " points="9.50682991 -6.34234218 9.71091837 -6.34247238 9.70069788 9.87295443 9.49660942 9.87308463"></polygon>
                    <polygon id="Rectangle-Copy-54" fill="#7AACA2" transform="translate(5.829413, 1.821880) rotate(-263.000000) translate(-5.829413, -1.821880) " points="5.72072463 -2.72205751 5.92484326 -2.72175618 5.9381018 6.36581776 5.73398317 6.36551643"></polygon>
                    <g id="Path-14" transform="translate(0.000000, 3.000000)">
                        <mask id="mask-2" fill="white">
                            <use xlink:href="#path-1"></use>
                        </mask>
                        <use id="Mask" fill="#7AACA2" xlink:href="#path-1"></use>
                        <polygon fill="#40514E" mask="url(#mask-2)" points="0.256346055 0.743813661 2.74057268 5.1710684 42.8293879 7.07668438 43.6569814 3.90595268"></polygon>
                    </g>
                </g>
            </g>
        </g>
    </g>
</svg>