<?xml version="1.0" encoding="UTF-8"?>
<svg width="69px" height="71px" viewBox="0 0 69 71" version="1.1" xmlns="http://www.w3.org/2000/svg" xmlns:xlink="http://www.w3.org/1999/xlink">
    <!-- Generator: Sketch 59.1 (86144) - https://sketch.com -->
    <title>Elektro2Icon</title>
    <desc>Created with Sketch.</desc>
    <defs>
        <circle id="path-1" cx="34" cy="34" r="34"></circle>
        <path d="M4,6 C4.18433333,6 4.33333333,6.14933333 4.33333333,6.33333333 C4.33333333,6.51733333 4.18433333,6.66666667 4,6.66666667 C3.81566667,6.66666667 3.66666667,6.51733333 3.66666667,6.33333333 C3.66666667,6.14933333 3.81566667,6 4,6 Z M4,4.66666667 C4.43433333,4.66666667 4.84533333,4.833 5.15766667,5.13433333 C5.29,5.26233333 5.29366667,5.47333333 5.166,5.60566667 C5.10066667,5.67366667 5.01333333,5.70766667 4.926,5.70766667 C4.84266667,5.70766667 4.759,5.67633333 4.69466667,5.614 C4.31966667,5.252 3.68033333,5.252 3.30533333,5.614 C3.17366667,5.742 2.96233333,5.73833333 2.834,5.60566667 C2.70633333,5.47333333 2.71,5.26233333 2.84233333,5.13433333 C3.15466667,4.833 3.56566667,4.66666667 4,4.66666667 Z M4,3 C4.80933333,3 5.596,3.33366667 6.15833333,3.916 C6.28566667,4.04866667 6.28233333,4.25966667 6.14966667,4.38733333 C6.08533333,4.45 6.00166667,4.48100734 5.91833333,4.48100734 C5.831,4.48100734 5.74366667,4.447 5.67833333,4.37933333 C5.24133333,3.92633333 4.62966667,3.66666667 4,3.66666667 C3.37033333,3.66666667 2.75866667,3.92633333 2.32166667,4.37933333 C2.194,4.51166667 1.98233333,4.51533333 1.85033333,4.38733333 C1.71766667,4.25966667 1.71433333,4.04866667 1.84166667,3.916 C2.404,3.33366667 3.19066667,3 4,3 Z M3.99986667,1.3334 C5.21586667,1.3334 6.36686667,1.7984 7.24153333,2.64306667 C7.37386667,2.77073333 7.37753333,2.98206667 7.24986667,3.1144 C7.18453333,3.18206667 7.0972,3.21606667 7.0102,3.21606667 C6.92686667,3.21606667 6.8432,3.18506667 6.77853333,3.1224 C6.02853333,2.39873333 5.04186667,2.00006667 3.99986667,2.00006667 C2.95786667,2.00006667 1.9712,2.39873333 1.2212,3.1224 C1.08953333,3.25073333 0.8782,3.24706667 0.749866667,3.1144 C0.622533333,2.98206667 0.625866667,2.77073333 0.758533333,2.64306667 C1.6332,1.7984 2.7842,1.3334 3.99986667,1.3334 Z" id="path-3"></path>
    </defs>
    <g id="Page-1" stroke="none" stroke-width="1" fill="none" fill-rule="evenodd">
        <g id="Elektro2Icon" transform="translate(-4.000000, -14.000000)">
            <g id="Group-18-Copy">
                <g id="Elektro-Icon">
                    <g id="Shape" transform="translate(4.000000, 14.000000)">
                        <mask id="mask-2" fill="white">
                            <use xlink:href="#path-1"></use>
                        </mask>
                        <use id="Mask" fill="#E4F5F0" xlink:href="#path-1"></use>
                        <path d="M48.1826501,42.1171728 C48.1826501,49.6636647 53.6558555,55.9607984 60.9422322,57.4490516 C66.081126,51.5016473 69.1826501,43.8257596 69.1826501,35.4403976 C69.1826501,32.4971416 68.8006775,29.6409507 68.0832977,26.9158917 C66.8534255,26.6219801 65.5750705,26.4490516 64.2522046,26.4490516 C55.3772658,26.4490516 48.1826501,33.4638051 48.1826501,42.1171728 Z" fill="#FFFFF4" opacity="0.515141375" mask="url(#mask-2)" transform="translate(58.682650, 41.949052) rotate(10.000000) translate(-58.682650, -41.949052) "></path>
                    </g>
                    <path d="M59.1159898,21 C44.0785176,25.0296376 33,38.7905844 33,55.1542192 C33,65.8984988 37.7814533,75.5160569 45.3175736,82 C61.073372,79.0380771 73,65.1683076 73,48.4943216 C73,37.20766 67.5331312,27.2062254 59.1159898,21 Z" id="Shape" fill="#FFFFF4" opacity="0.300000012"></path>
                    <circle id="Oval" fill-opacity="0.38" fill="#ECF8F0" cx="34" cy="84" r="1"></circle>
                    <circle id="Oval" fill="#ECF8F0" cx="36" cy="68" r="1"></circle>
                    <circle id="Oval" fill="#ECF8F0" cx="44" cy="80" r="1"></circle>
                    <circle id="Oval" fill="#ECF8F0" opacity="0.59" cx="64" cy="71" r="1"></circle>
                    <path d="M3.31764223,62.0667945 C8.65171944,73.847933 20.5184339,82.0506561 34.3121695,82.0506561 C53.0928873,82.0506561 68.3176422,66.8535284 68.3176422,48.1068906 C68.3176422,47.7526025 68.3017022,47.4022923 68.2909426,47.0506561 C47.2624099,47.1469185 37.7267971,61.8965453 3.31764223,61.8965453 L3.31764223,62.0667945 Z" id="Shape" fill-opacity="0.18" fill="#AED3D5" transform="translate(35.817642, 64.550656) rotate(14.000000) translate(-35.817642, -64.550656) "></path>
                    <g id="Computer" transform="translate(18.000000, 29.000000)">
                        <rect id="Rectangle" fill="#7AACA2" transform="translate(20.000000, 15.000000) rotate(-90.000000) translate(-20.000000, -15.000000) " x="5" y="-5" width="30" height="40" rx="2"></rect>
                        <rect id="Rectangle" stroke="#40514E" fill="#E8F2C7" transform="translate(20.000000, 14.000000) rotate(-90.000000) translate(-20.000000, -14.000000) " x="8.5" y="-3.5" width="23" height="35" rx="2"></rect>
                        <rect id="Rectangle" fill="#F8B5AD" transform="translate(9.500000, 14.500000) rotate(-270.000000) translate(-9.500000, -14.500000) " x="5" y="10" width="9" height="9" rx="2"></rect>
                        <path d="M17.5386473,27.3199034 L20.5386473,25.7599034 C21.0286436,25.5051053 21.6324187,25.6957712 21.8872168,26.1857675 C21.9613146,26.3282633 22,26.4865103 22,26.6471202 L22,37.410766 C22,37.9630508 21.5522847,38.410766 21,38.410766 C20.8502011,38.410766 20.7023161,38.3771117 20.5672689,38.3122891 L17.5672689,36.8722891 C17.2205536,36.7058657 17,36.3553545 17,35.970766 L17,28.2071202 C17,27.8340593 17.2076613,27.4920161 17.5386473,27.3199034 Z" id="Rectangle-Copy-68" fill="#7AACA2" transform="translate(19.500000, 32.000000) rotate(-270.000000) translate(-19.500000, -32.000000) "></path>
                        <g id="Group-19" transform="translate(3.000000, 3.000000)">
                            <rect id="Rectangle-Copy-60" fill="#A6CDD1" x="0" y="0" width="34" height="5" rx="1"></rect>
                            <circle id="Oval" stroke="#979797" fill="#F7746C" transform="translate(1.500000, 1.500000) scale(-1, -1) translate(-1.500000, -1.500000) " cx="1.5" cy="1.5" r="1"></circle>
                            <circle id="Oval-Copy-29" fill="#40514E" cx="3.5" cy="1.5" r="1"></circle>
                            <circle id="Oval-Copy-30" fill="#40514E" cx="5.5" cy="1.5" r="1"></circle>
                        </g>
                        <rect id="Rectangle-Copy-67" fill="#7AACA2" x="12" y="33" width="15" height="2" rx="1"></rect>
                        <g id="Group-16" transform="translate(17.000000, 11.000000)" fill="#40514E">
                            <rect id="Rectangle-Copy-58" x="0" y="0" width="18" height="1"></rect>
                            <rect id="Rectangle-Copy-59" x="0" y="2" width="18" height="1"></rect>
                        </g>
                        <g id="Group-17" transform="translate(5.000000, 16.000000)" fill="#979797">
                            <rect id="Rectangle-Copy-61" x="0" y="4" width="30" height="1"></rect>
                            <rect id="Rectangle-Copy-65" x="0" y="6" width="30" height="1"></rect>
                            <rect id="Rectangle-Copy-63" x="12" y="0" width="18" height="1"></rect>
                            <rect id="Rectangle-Copy-64" x="12" y="2" width="18" height="1"></rect>
                        </g>
                    </g>
                    <g id="wifi" transform="translate(51.000000, 36.000000) rotate(14.000000) translate(-51.000000, -36.000000) translate(47.000000, 32.000000)">
                        <mask id="mask-4" fill="white">
                            <use xlink:href="#path-3"></use>
                        </mask>
                        <use id="🎨-Icon-Сolor" fill="#7AACA2" fill-rule="evenodd" xlink:href="#path-3"></use>
                    </g>
                </g>
                <rect id="Rectangle" fill="#7AACA2" x="21" y="66" width="34" height="5" rx="1"></rect>
                <rect id="Rectangle" fill="#40514E" x="23" y="67" width="30" height="3" rx="1"></rect>
            </g>
        </g>
    </g>
</svg>