<?xml version="1.0" encoding="UTF-8"?>
<svg width="218px" height="218px" viewBox="0 0 218 218" version="1.1" xmlns="http://www.w3.org/2000/svg" xmlns:xlink="http://www.w3.org/1999/xlink">
    <!-- Generator: Sketch 59.1 (86144) - https://sketch.com -->
    <title>Family</title>
    <desc>Created with Sketch.</desc>
    <defs>
        <linearGradient x1="50%" y1="73.9046664%" x2="50%" y2="100%" id="linearGradient-1">
            <stop stop-color="#E4F5F0" offset="0%"></stop>
            <stop stop-color="#C4E7DC" offset="100%"></stop>
        </linearGradient>
        <filter x="0.0%" y="0.0%" width="100.0%" height="100.0%" filterUnits="objectBoundingBox" id="filter-2">
            <feGaussianBlur stdDeviation="0" in="SourceGraphic"></feGaussianBlur>
        </filter>
    </defs>
    <g id="Symbols" stroke="none" stroke-width="1" fill="none" fill-rule="evenodd">
        <g id="Family">
            <g>
                <g>
                    <circle id="Oval-Copy-23" fill="url(#linearGradient-1)" filter="url(#filter-2)" cx="109" cy="109" r="109"></circle>
                    <g id="Family-Icon-Copy" stroke-width="1" transform="translate(53.000000, 33.000000)">
                        <g id="Dog" transform="translate(71.500000, 97.000000)" fill="#848484">
                            <path d="M3,8.35483871 L39.8499489,8.35483871 C41.4110038,8.35483871 42.7111828,9.55199844 42.8397561,11.1077495 L42.8835886,11.6381275 L42.8835886,11.6381275 L44.7112398,33.7529108 C44.8477034,35.4041357 43.6197468,36.8533436 41.9685219,36.9898072 C41.8863339,36.9965995 41.8039008,37 41.7214327,37 L3,37 C1.34314575,37 2.02906125e-16,35.6568542 0,34 L0,11.3548387 C-2.02906125e-16,9.69798446 1.34314575,8.35483871 3,8.35483871 Z" id="Rectangle"></path>
                            <path d="M27.2810787,4.9421845 C38.1593583,2.81371573 45.9891119,3.18079327 50.7703395,6.04341712 C54.9981563,8.57470192 57.0832036,11.8505805 57.0254815,15.8710527 C57.0038234,17.380486 55.8639292,18.6387123 54.3639621,18.8088781 L28.1953129,21.777617 C26.5490187,21.9643831 25.0630297,20.7812019 24.8762636,19.1349078 C24.8635266,19.0226345 24.8571429,18.9097312 24.8571429,18.7967378 L24.8571429,7.88636056 C24.8571391,6.45160604 25.8730238,5.21768769 27.2810787,4.9421845 Z" id="Rectangle-Copy-51"></path>
                            <polygon id="Triangle" points="45.5714286 0 48.5306122 5.96774194 42.6122449 5.96774194"></polygon>
                            <polygon id="Triangle-Copy" points="42.0204082 0 44.9795918 5.96774194 39.0612245 5.96774194"></polygon>
                        </g>
                        <g id="Vater" transform="translate(0.500000, 0.000000)">
                            <rect id="Rectangle" fill="#7AACA2" x="6.73229804" y="26.1367521" width="52.4255319" height="65.3418803" rx="7"></rect>
                            <rect id="Rectangle-Copy-50" fill="#7AACA2" x="6.73229804" y="73.6581197" width="22.6382979" height="65.3418803" rx="7"></rect>
                            <ellipse id="Oval" fill="#E8F2C7" cx="104.255319" cy="45.7393162" rx="7.74468085" ry="4.15811966"></ellipse>
                            <rect id="Rectangle-Copy-48" fill="#7AACA2" x="37.7110214" y="73.6581197" width="22.6382979" height="65.3418803" rx="7"></rect>
                            <path d="M10.5916622,27.1170411 L10.8892009,27.1169662 C14.7551931,27.1124636 17.8899889,30.2456812 17.8909623,34.1116743 C17.8909626,34.112851 17.8909626,34.1140277 17.8874331,34.1152035 L17.8750686,83.0824069 C17.8705619,86.9470207 14.7379151,90.0796652 10.8733013,90.0841692 L10.5757626,90.0842441 C6.70977041,90.0887466 3.57497466,86.9555291 3.57400127,83.089536 C3.57400097,83.0883593 3.57400097,83.0871826 3.57753041,83.0860068 L3.58989492,34.1188034 C3.59440169,30.2541896 6.7270485,27.1215451 10.5916622,27.1170411 Z" id="Rectangle" fill="#8BC2B7" transform="translate(10.732482, 58.600605) rotate(5.000000) translate(-10.732482, -58.600605) "></path>
                            <path d="M75.2816467,7.06703568 L76.7280255,7.06789105 C80.5907894,7.07017543 83.7216062,10.2009971 83.7238845,14.0637611 L83.7528688,63.204774 C83.755149,67.0707666 80.6229913,70.2066213 76.7569987,70.2089015 C76.7542426,70.2089031 76.7514864,70.2089031 76.7487303,70.2089015 L75.3023515,70.2080461 C71.4395876,70.2057617 68.3087707,67.07494 68.3064924,63.2121761 L68.2775082,14.0711632 C68.275228,10.2051706 71.4073857,7.06931591 75.2733783,7.06703568 C75.2761344,7.06703405 75.2788905,7.06703405 75.2816467,7.06703568 Z" id="Rectangle-Copy-49" fill="#8BC2B7" transform="translate(76.015188, 38.637969) rotate(-78.000000) translate(-76.015188, -38.637969) "></path>
                            <ellipse id="Oval" fill="#E8F2C7" cx="31.7535746" cy="15.4444444" rx="15.4893617" ry="15.4444444"></ellipse>
                        </g>
                        <g id="Mutter" transform="translate(42.500000, 9.000000)">
                            <path d="M26.5422354,25.1407036 L48.257166,25.922505 C51.5285092,26.040283 54.2813968,28.4095058 54.8851976,31.6268 L71.0490968,117.754576 C71.7621918,121.554234 69.2600382,125.212543 65.4603804,125.925638 C65.0691922,125.999053 64.6724551,126.038971 64.2744824,126.044957 L9.39509537,126.870395 C5.52953934,126.928536 2.34875396,123.842017 2.29061235,119.976461 C2.28336163,119.494395 2.32593286,119.01287 2.41764811,118.539554 L19.4182054,30.8045392 C20.0740664,27.419828 23.0967984,25.0166577 26.5422354,25.1407036 Z" id="Rectangle" fill="#7BACAE"></path>
                            <path d="M21.6008071,25.4584061 L21.9463385,25.48534 C25.80064,25.7857791 28.6816147,29.1538618 28.3811756,33.0081633 C28.3775326,33.0548992 28.3734202,33.1015972 28.3688391,33.1482505 L24.8351224,69.1346943 C24.4626713,72.9276384 21.1242963,75.7256242 17.3246356,75.4294443 L16.9791042,75.4025105 C13.1248027,75.1020714 10.243828,71.7339886 10.5442671,67.8796871 C10.5479101,67.8329513 10.5520225,67.7862532 10.5566036,67.7396 L14.0903203,31.7531561 C14.4627714,27.9602121 17.8011464,25.1622262 21.6008071,25.4584061 Z" id="Rectangle" fill="#99C4C7"></path>
                            <path d="M53.8004558,24.4979974 C57.096964,24.0753591 60.1293879,26.3577979 60.6354352,29.6425362 L66.8106934,69.725955 C67.3004801,72.9051459 65.1202872,75.8794398 61.9410964,76.3692265 C61.8924613,76.3767192 61.8437332,76.3835953 61.7949238,76.3898531 C58.4984156,76.8124914 55.4659917,74.5300525 54.9599444,71.2453143 L48.7846862,31.1618955 C48.2948995,27.9827046 50.4750924,25.0084106 53.6542833,24.518624 C53.7029184,24.5111312 53.7516465,24.5042552 53.8004558,24.4979974 Z" id="Rectangle-Copy-49" fill="#99C4C7"></path>
                            <ellipse id="Oval" fill="#E8F2C7" cx="37.0983607" cy="14.2429907" rx="14.3606557" ry="14.2429907"></ellipse>
                        </g>
                        <g id="Kind" transform="translate(2.500000, 69.000000)">
                            <ellipse id="Oval" fill="#E8F2C7" cx="103.241935" cy="18.295082" rx="7.75806452" ry="4.13114754"></ellipse>
                            <g id="Combined-Shape-2" transform="translate(2.580645, 7.262295)" fill="#99C4C7">
                                <path d="M9.72404379,1.02454477 L39.3124264,12.8462701 L66.3234264,12.8462701 L95.0344106,3.070416 C96.0749565,2.71609595 97.2064239,3.26792841 97.5678712,4.3060201 L102.469852,18.384715 C102.833059,19.4278613 102.28186,20.5679362 101.238713,20.9311434 C101.234396,20.9326466 101.230073,20.9341351 101.225746,20.9356088 L72.3514264,30.7672701 L72.3518987,60.6011666 C72.3518987,62.2580209 71.008753,63.6011666 69.3518987,63.6011666 L38.3518987,63.6011666 C36.6950445,63.6011666 35.3518987,62.2580209 35.3518987,60.6011666 L35.3514264,32.9052701 L2.15189627,19.6405043 C1.12617049,19.2306746 0.626888093,18.0669269 1.03671782,17.0412012 L1.04251501,17.0268533 L7.1305378,2.12537531 C7.54600788,1.10844118 8.70392546,0.616955506 9.72404379,1.02454477 Z" id="Combined-Shape"></path>
                            </g>
                            <ellipse id="Oval-Copy-22" fill="#E8F2C7" cx="54.6422213" cy="12.9836066" rx="13.1290323" ry="12.9836066"></ellipse>
                            <ellipse id="Oval-Copy-20" fill="#E8F2C7" cx="7.75806452" cy="17.1147541" rx="7.75806452" ry="4.13114754"></ellipse>
                        </g>
                    </g>
                </g>
            </g>
        </g>
    </g>
</svg>