<?xml version="1.0" encoding="UTF-8"?>
<svg width="67px" height="68px" viewBox="0 0 67 68" version="1.1" xmlns="http://www.w3.org/2000/svg" xmlns:xlink="http://www.w3.org/1999/xlink">
    <!-- Generator: Sketch 59.1 (86144) - https://sketch.com -->
    <title>Group 2 Copy 5</title>
    <desc>Created with Sketch.</desc>
    <defs>
        <linearGradient x1="50%" y1="73.9046664%" x2="50%" y2="100%" id="linearGradient-1">
            <stop stop-color="#E4F5F0" offset="0%"></stop>
            <stop stop-color="#C4E7DC" offset="100%"></stop>
        </linearGradient>
        <filter x="0.0%" y="0.0%" width="100.0%" height="100.0%" filterUnits="objectBoundingBox" id="filter-2">
            <feGaussianBlur stdDeviation="0" in="SourceGraphic"></feGaussianBlur>
        </filter>
    </defs>
    <g id="Page-1" stroke="none" stroke-width="1" fill="none" fill-rule="evenodd">
        <g id="Group-2-Copy-5">
            <circle id="Oval" fill="url(#linearGradient-1)" filter="url(#filter-2)" cx="33.5" cy="33.5" r="33.5"></circle>
            <path d="M53.1159898,6 C38.0785176,9.963578 27,23.4989355 27,39.594314 C27,50.1624578 31.7814533,59.6223511 39.3175736,66 C55.073372,63.0866333 67,49.444237 67,33.043595 C67,21.9419606 61.5331312,12.104484 53.1159898,6 Z" id="Shape" fill="#FFFFFB" opacity="0.300000012"></path>
            <path d="M14.3081395,57.6225036 L62,46.2162388 L46.1693662,45.8112518 C41.2631432,45.8112518 31.4655248,38.4485834 20.574095,36.8926436 C14.4307895,36.0150165 8.73024154,33.2239422 0,34.2068922 C0,42.6166455 3.1247907,50.3018362 8.28240698,56.2122837 C11.5219302,56.9754879 14.3081395,57.6225036 14.3081395,57.6225036 Z" id="Shape" fill="#E8F2C7"></path>
            <path d="M61.8876276,37.8535534 C53.4688307,37.8934396 49.5255834,44.7061544 38.2076403,50.5129855 C29.8842466,54.7834207 14.5514968,58.3657175 5.88762756,59.0434046 C11.8426707,64.4945415 19.8700325,67.8535534 28.7240364,67.8535534 C46.3512758,67.8535534 60.7655707,54.6020904 61.8876276,37.8535534 Z" id="Familiy-Boden" fill="#CAE3DD" transform="translate(33.887628, 52.853553) rotate(15.000000) translate(-33.887628, -52.853553) "></path>
            <g id="Family" transform="translate(4.000000, 8.000000)">
                <g id="Mann" transform="translate(10.000000, 0.000000)">
                    <path d="M22.0162812,30.8901332 C22.1178341,30.9030868 22.1860798,30.9293037 22.2210183,30.9687838 C22.2559568,31.008264 22.4651026,30.9907064 22.8484558,30.9161112 C23.0249146,30.9937805 23.0450133,31.0667001 22.9087521,31.1348699 C22.7724909,31.2030398 22.6246251,31.2189756 22.4651549,31.1826774 L22.5174723,31.3053885 C22.8872158,31.3335209 23.0713391,31.3232366 23.0698421,31.2745354 C23.0675966,31.2014837 23.3309538,31.4178814 23.1264516,31.4910452 C22.9901167,31.539821 22.8088383,31.5623194 22.5826163,31.5585405 L22.5300755,31.7154047 L23.0322631,31.7310814 C23.1026154,31.8189645 23.0697361,31.8899567 22.9336253,31.944058 C22.7975144,31.9981593 22.62055,31.9926351 22.4027318,31.9274852 L22.3625778,32.048196 L22.7575334,32.1137103 C22.6866782,32.265122 22.585957,32.3207439 22.4553697,32.280576 C22.2594886,32.2203242 21.4177824,32.2285088 21.2114882,31.8902982 C21.0051941,31.5520876 21.0467491,31.0738549 21.2353363,30.9380139 C21.4239235,30.8021729 21.6019437,30.5960736 21.8584997,30.6040825 C22.0295371,30.6094218 22.1671875,30.55179 22.2714509,30.4311873 C22.4372232,30.5148483 22.454042,30.6128135 22.3219074,30.7250828 C22.1897727,30.837352 22.0878973,30.8923689 22.0162812,30.8901332 Z" id="Path-30-Copy" fill="#FBDCC2" transform="translate(22.139309, 31.362198) scale(-1, 1) rotate(38.000000) translate(-22.139309, -31.362198) "></path>
                    <g id="Oberkörper" transform="translate(2.971194, 18.369501)">
                        <rect id="Rectangle" fill="#FFFFFF" x="8.9135824" y="0.633431085" width="3.56543296" height="15.5190616"></rect>
                        <polygon id="Path-42" fill="#7BACAE" points="22.1389659 6.17595308 31.8027872 9.9414328 30.7847587 12.0992134 20.2672674 10.5769189 19.1246586 9.18475073"></polygon>
                        <polygon id="Path-40" fill="#99C4C7" transform="translate(17.997804, 9.651317) rotate(4.000000) translate(-17.997804, -9.651317) " points="19.9634575 3.80277593 21.9368483 5.91987667 18.0711583 16.4586513 14.0587589 16.4402423 18.0125223 2.84398321"></polygon>
                        <polygon id="Path-40-Copy" fill="#99C4C7" transform="translate(3.844749, 9.924945) scale(-1, 1) rotate(8.000000) translate(-3.844749, -9.924945) " points="5.2066903 4.08533706 6.6259662 6.20425425 3.9258852 16.7261684 1.06353259 16.7001838 3.80975456 3.1237212"></polygon>
                        <polygon id="Path-27" fill="#7BACAE" points="12.3914749 0 19.4762652 3.38846653 13.8614631 17.045659 10.3991795 17.045659 11.0650545 0"></polygon>
                        <polygon id="Path-27-Copy" fill="#7BACAE" transform="translate(6.536627, 8.522830) scale(-1, 1) translate(-6.536627, -8.522830) " points="4.53632107 0 10.1020601 3.38846653 5.69112883 17.045659 2.97119413 17.045659 3.49429876 0"></polygon>
                    </g>
                    <g id="Kopfmann" transform="translate(6.833747, 0.000000)">
                        <path d="M5.74690123,17.4507746 C6.51768552,17.4569322 7.28846981,17.4630898 8.05925411,17.4692473" id="Path" stroke="#979797"></path>
                        <path d="M14.5588513,10.5961082 C14.6649576,9.81818182 15.0125776,9.62370021 15.6017115,10.0126634 C16.1908453,10.4016266 16.0641556,11.3164101 15.2216425,12.7570138 L14.5588513,14.6115594 L14.5588513,10.5961082 Z" id="Path-24" fill="#FBDCC2"></path>
                        <path d="M3.86255237,2.27373675e-13 C4.77882923,1.42178513 6.46413124,2.13267769 8.91845841,2.13267769 C12.5999492,2.13267769 14.4399193,5.71556399 14.4399193,7.85640664 C14.4399193,9.99724929 15.578248,9.65833359 14.0890986,17.7291014 C13.3297671,21.8444625 8.83647387,23.5583507 4.55496222,22.4959123 C3.67747628,22.278168 2.85243417,21.6444043 2.07983589,20.594621 L3.86255237,2.27373675e-13 Z" id="Path-22" fill="#848484"></path>
                        <path d="M3.86255237,0 C3.69446983,0.534077593 3.4476449,0.396410583 3.32805438,0.630023664 C3.15059174,0.976686501 2.65121987,1.95124815 2.72994944,2.4367162 C2.77876764,2.73774259 2.83753028,3.12326721 2.72994944,3.61035704 C2.44651022,4.89367435 1.70533689,4.62369635 1.34631605,5.45268484 C-0.97462563,10.8117997 0.115109163,14.9190807 1.55356489,20.1753348 C1.56728623,20.2254739 1.86676262,20.5235166 2.2233754,20.9032258 L3.86255237,0 Z" id="Path-23" fill="#848484"></path>
                        <path d="M0.470236563,11.6275022 C0.494842087,12.7479786 0.309929508,13.9013673 0.544053134,14.9889314 C0.627933253,15.378576 0.993837143,16.4968506 2.17173411,16.8965272 C2.5144043,17.0127999 2.95200684,16.8965272 3.43891084,16.8965272 C3.55260605,16.8965272 3.7327427,17.6235087 4.31176545,18.0245827 C5.32868713,18.7289778 7.1810885,19.2132443 7.64790595,19.0319591 C8.3991751,18.7402092 8.73887149,17.9873772 9.48009526,17.6630053 C11.4861689,16.785114 12.3740322,18.9009593 13.7693898,15.1336102 C14.2473374,13.8431918 14.074322,12.2847453 13.9940261,10.883755 C13.8247804,7.93078553 12.3627313,6.28695052 11.3448606,5.99912497 C10.0272908,5.62655284 8.73510942,7.47772999 7.04837781,7.29284221 C6.46889016,7.22932281 5.81374037,6.62433956 5.2607147,6.41407678 C1.61532137,5.02808228 1.63398021,5.85745865 0.470236563,9.11243328 L0.470236563,11.6275022 Z" id="Path-18" fill="#FBDCC2"></path>
                        <ellipse id="Oval" fill="#FFFFFF" cx="3.26831355" cy="10.4516129" rx="1.18847765" ry="1.26686217"></ellipse>
                        <ellipse id="Oval-Copy" fill="#FFFFFF" cx="11.5876571" cy="10.4516129" rx="1.18847765" ry="1.26686217"></ellipse>
                        <ellipse id="Oval" fill="#000000" cx="11.4390974" cy="10.6099707" rx="1" ry="1"></ellipse>
                        <ellipse id="Oval-Copy-2" fill="#000000" cx="3.11975384" cy="10.6099707" rx="1" ry="1"></ellipse>
                        <ellipse id="Oval" fill="#FFFFFF" cx="11.141978" cy="10.6099707" rx="1" ry="1"></ellipse>
                        <path d="M5.34814944,17.8571718 C5.40176563,17.8264159 5.00181228,17.5568971 5.05103003,17.524613 C5.30040144,17.3610396 5.95285921,17.4302988 6.19250311,17.4099131 C6.4589821,17.3872446 6.68620237,17.6910547 6.86542835,17.6807318 C7.09851222,17.6673068 7.70717588,17.3441344 7.83400669,17.4099131 C7.90260397,17.44549 8.02847557,17.2508302 8.05925411,17.3016532 C8.16300056,17.4729643 7.96109368,17.9485065 7.68907937,18.1646214 C7.23828038,18.5227805 6.08183505,18.5740075 5.34814944,17.8571718 C5.16756203,17.6807318 5.07101867,17.5378061 5.05103003,17.524613" id="Path-26" stroke="#CFBBAB" stroke-width="0.4"></path>
                        <path d="M1.34766477,10.2347951 C2.1056274,9.02476356 3.22035324,8.91286429 4.69184229,9.89909729" id="Path-39" fill="#848484"></path>
                        <path d="M10.0353244,9.9617458 C11.3472442,8.83776274 12.4589272,8.90973739 13.3703736,10.1776698" id="Path-20" fill="#848484"></path>
                        <path d="M2.37695531,15.8999405 C3.5690381,16.0967169 4.4310736,16.0448731 4.96306181,15.7444094 C5.49505003,15.4439456 6.10488291,15.4439456 6.79256045,15.7444094 C6.37296335,16.5232491 6.00140613,16.9678631 5.6778888,17.0782512 C5.47257893,17.1483054 4.43814482,17.4552397 3.57868401,17.0782512 C3.24879344,16.93355 2.8482172,16.5407798 2.37695531,15.8999405 Z" id="Path-21" fill="#848484"></path>
                        <path d="M6.83374651,15.8999405 C8.19737522,16.0967169 9.1834614,16.0448731 9.79200505,15.7444094 C10.4005487,15.4439456 11.0981392,15.4439456 11.8847765,15.7444094 C11.4047976,16.5232491 10.9797717,16.9678631 10.6096988,17.0782512 C10.3748439,17.1483054 9.1915502,17.4552397 8.20840922,17.0782512 C7.83104596,16.93355 7.37282505,16.5407798 6.83374651,15.8999405 Z" id="Path-21-Copy" fill="#848484" transform="translate(9.359262, 16.390772) scale(-1, 1) translate(-9.359262, -16.390772) "></path>
                        <path d="M5.54641868,10.1348974 C5.54641868,10.6141233 5.69917632,11.7239319 5.54641868,12.5315861 C5.26796554,14.0038126 4.90824753,15.6222146 7.36613604,14.3041602" id="Path-25" stroke-opacity="0.368689904" stroke="#848484" stroke-width="0.5" stroke-linejoin="round"></path>
                        <ellipse id="Oval" fill="#FFFFFF" cx="2.82263443" cy="10.6099707" rx="1" ry="1"></ellipse>
                    </g>
                    <g id="Beine" transform="translate(6.239508, 33.888563)">
                        <rect id="Rectangle" fill="#848484" x="1.18847765" y="0.633431085" width="13.0732542" height="1.26686217"></rect>
                        <path d="M5.62370286,14.9616908 L6.03961325e-14,14.9616908 C0.704120956,13.4329781 1.64140477,12.6686217 2.81185143,12.6686217 C3.34866805,12.6686217 4.21222134,12.6686217 5.379133,12.9853372 C5.58576637,13.0414203 5.66728965,13.7002048 5.62370286,14.9616908 Z" id="Path-28" fill="#848484"></path>
                        <path d="M13.9538035,14.9616908 L8.61646299,14.9616908 C9.28472968,13.4329781 10.1742864,12.6686217 11.2851333,12.6686217 C11.7946149,12.6686217 12.6141955,12.6686217 13.7216873,12.9853372 C13.9177988,13.0414203 13.9951709,13.7002048 13.9538035,14.9616908 Z" id="Path-28-Copy" fill="#848484" transform="translate(11.290538, 13.815156) scale(-1, 1) translate(-11.290538, -13.815156) "></path>
                        <path d="M1.18847765,1.90029326 C1.3137692,7.63691145 1.83405003,11.3742947 2.74932014,13.112443 C2.92287832,13.4420396 3.11981598,13.0249815 3.26625242,13.112443 C3.62290701,13.3254608 3.88147392,13.5772778 4.23670383,13.4397122 C4.88935813,13.1869668 5.57612351,13.112443 5.57612351,13.112443 C5.57612351,13.112443 5.57612351,10.8397773 5.57612351,6.29444583 C6.57608401,5.72244973 7.73733296,5.72244973 9.05987037,6.29444583 C9.71902114,6.57952787 9.41634016,7.35078331 9.35600768,8.08575091 C9.26803218,9.15746467 9.17873208,10.3669216 9.05987037,11.6590286 C9.01491865,12.1476841 8.56208315,12.6869169 8.74887386,13.112443 C8.92530377,13.5143663 9.09419871,13.1986025 9.35600768,13.112443 C9.64901039,13.0160179 10.0392015,13.1208429 10.3023914,13.112443 C11.1628603,13.0849806 11.8136335,13.3121967 11.8136335,13.112443 C11.8136335,12.902146 12.5877065,9.16476271 14.1358524,1.90029326 L1.18847765,1.90029326 Z" id="Path-29" fill="#40514E"></path>
                        <ellipse id="Oval" stroke="#979797" fill="#D8D8D8" cx="6.83374651" cy="1.26686217" rx="1" ry="1"></ellipse>
                        <rect id="Rectangle" fill="#99C4C7" x="8.61646299" y="12.6686217" width="3.26831355" height="1"></rect>
                        <rect id="Rectangle-Copy" fill="#99C4C7" x="2.67407472" y="12.9853372" width="2.97119413" height="1"></rect>
                    </g>
                    <polygon id="Path-41" fill="#7BACAE" points="1.36754708 31.7611914 0.329217964 29.5369953 0.124507537 26.0221033 4.31937328 23.0787528 5.01324276 25.7343985 2.27720901 27.8203713 2.02281166 29.0567561"></polygon>
                </g>
                <g id="Mutter" transform="translate(32.000000, 2.000000)">
                    <g id="Kopf-Mutter" transform="translate(11.284964, 11.065343) rotate(-8.000000) translate(-11.284964, -11.065343) translate(1.284964, 1.565343)">
                        <path d="M8.82133831,17.0752751 C11.1387533,17.0752751 14.313859,19.1896587 15.8018206,17.5724887 C17.2135518,16.0381685 16.9984709,10.8332617 16.9984709,8.53763754 C16.9984709,3.82243053 13.3374439,0 8.82133831,0 C4.30523269,0 0.644205731,3.82243053 0.644205731,8.53763754 C0.644205731,10.24254 -0.531212276,14.0270963 0.293408542,15.3600733 C1.74942128,17.7136781 5.93814504,17.0752751 8.82133831,17.0752751 Z" id="Oval" fill="#E9C79C"></path>
                        <path d="M9.26049509,18.1577124 C10.5618942,18.1577124 11.3763069,17.2660722 12.3258237,16.4539646 C12.778469,16.0668237 14.4390254,14.1019018 14.6570618,13.5009001 C15.3909841,11.4778969 15.3623125,12.35808 15.3623125,10.1186815 C15.3623125,5.84006776 13.2927323,4.11071437 9.26049509,4.11071437 C5.22825793,4.11071437 2.10440798,6.15627655 2.10440798,10.4348903 C2.10440798,11.7306376 3.13816197,13.4469527 3.64962779,14.5171601 C4.82704434,16.9808243 6.44939181,18.1577124 9.26049509,18.1577124 Z" id="Oval" fill="#FBDCC2"></path>
                        <g id="Group" transform="translate(4.732772, 7.272802)">
                            <path d="M0.694431111,1.50675891 C0.462954074,1.21890279 0.231477037,0.931046666 0,0.643190543" id="Path-32" stroke="#979797" stroke-width="0.3"></path>
                            <path d="M1.11064808,1.18499443 C0.867826849,0.893660132 0.625005615,0.602325832 0.38218438,0.310991532" id="Path-32-Copy" stroke="#979797" stroke-width="0.3" transform="translate(0.746416, 0.747993) rotate(24.000000) translate(-0.746416, -0.747993) "></path>
                            <ellipse id="Oval" fill="#FFFFFF" cx="1.31418202" cy="1.74992133" rx="1.02214157" ry="1.10673079"></ellipse>
                            <ellipse id="Oval" fill="#7AACA2" cx="1.31418202" cy="1.74992133" rx="1" ry="1"></ellipse>
                            <ellipse id="Oval" fill="#000000" cx="1.31418202" cy="1.74992133" rx="1" ry="1"></ellipse>
                            <ellipse id="Oval" fill="#D8D8D8" cx="1.02214157" cy="1.42293959" rx="1" ry="1"></ellipse>
                        </g>
                        <path d="M14.5526477,10.4007341 C14.3083,10.1380883 14.0639523,9.87544253 13.8196046,9.61279673" id="Path-32-Copy-2" stroke="#979797" stroke-width="0.3" transform="translate(14.186126, 10.006765) rotate(-76.000000) translate(-14.186126, -10.006765) "></path>
                        <path d="M14.2153475,9.99921015 C13.9659165,9.73429626 13.7164855,9.46938237 13.4670546,9.20446848" id="Path-32-Copy-3" stroke="#979797" stroke-width="0.3" transform="translate(13.841201, 9.601839) rotate(93.000000) translate(-13.841201, -9.601839) "></path>
                        <path d="M5.53232447,13.5009001 C7.68424623,15.5474003 9.58388998,15.1799926 11.9064943,13.65159" id="Path-34" stroke="#CFBBAB" stroke-width="0.5"></path>
                        <path d="M6.6310078,3.34550253 C8.39658203,6.80692587 11.0220967,8.53763754 14.5075519,8.53763754 C17.993007,8.53763754 19.7641311,7.86151883 19.8209239,6.50928141 C17.9765427,7.26442204 16.0073835,6.92591072 13.9134465,5.49374745 C11.8195095,4.06158417 10.5658112,2.73488019 10.1523516,1.51363551 L6.6310078,3.34550253 Z" id="Path-31" fill="#E9C79C"></path>
                        <ellipse id="Oval" fill="#FBDCC2" cx="1.81236753" cy="9.01195073" rx="1" ry="1.42293959"></ellipse>
                        <ellipse id="Oval-Copy-3" fill="#FFFFFF" cx="13.0559248" cy="10.5929947" rx="1.02214157" ry="1.10673079"></ellipse>
                        <ellipse id="Oval-Copy-4" fill="#7AACA2" cx="13.0559248" cy="10.5929947" rx="1" ry="1"></ellipse>
                        <ellipse id="Oval-Copy-5" fill="#000000" cx="13.0559248" cy="10.5929947" rx="1" ry="1"></ellipse>
                        <ellipse id="Oval-Copy-6" fill="#D8D8D8" cx="13.0559248" cy="10.2767859" rx="1" ry="1"></ellipse>
                        <path d="M7.06909561,14.6918809 C7.45287636,14.7008114 7.98021764,15.5491236 8.36399839,15.5580542 C8.71052884,15.5661179 9.23715072,14.9099972 9.58368118,14.9180609 L7.06909561,14.6918809 Z" id="Path-33" stroke="#CFBBAB" stroke-width="0.5"></path>
                        <path d="M8.39472766,11.4778969 C8.20613369,12.0254346 7.11111995,13.3689253 8.9943569,12.9937915" id="Path-35" stroke="#CFBBAB" stroke-width="0.5"></path>
                    </g>
                    <rect id="Rectangle" fill="#FBDCC2" x="9.05325392" y="19.2228263" width="2.62836404" height="2.52967038"></rect>
                    <path d="M7.88509213,40.4088158 L9.41228154,40.4088158 L9.41228154,45.1519478 C9.14318126,45.5715314 8.95195239,45.7813232 8.83859493,45.7813232 C8.72523748,45.7813232 8.6244259,45.5715314 8.53616019,45.1519478 L7.88509213,40.4088158 Z" id="Rectangle" fill="#F7E1C6"></path>
                    <path d="M10.2214157,40.4088158 L11.7486051,40.4088158 L11.7486051,45.3994136 C11.5822448,45.65402 11.4454348,45.7813232 11.3381751,45.7813232 C11.2309154,45.7813232 11.075685,45.5715314 10.8724838,45.1519478 L10.2214157,40.4088158 Z" id="Rectangle-Copy-2" fill="#F7E1C6"></path>
                    <path d="M14.1286596,22.2718809 C14.5515281,24.5488927 14.8997557,26.1802011 15.1733422,27.1658061 C15.4469287,28.1514111 15.8300657,29.5857888 16.3227532,31.4689393 L15.777511,31.7557288 C15.3175445,29.7695969 15.0012415,28.5594941 14.8286021,28.1254207 C14.769494,27.9768031 14.642298,27.4641848 14.5916773,27.387709 C14.3192819,26.9761845 13.7422566,25.6629063 12.8606015,23.4478743 L14.1286596,22.2718809 Z" id="Path-37" fill="#FBDCC2"></path>
                    <path d="M3.97705122,21.6019353 C4.30571412,23.8299422 4.58390152,25.424736 4.81161344,26.3863166 C5.03932535,27.3478973 5.40524142,28.7921833 5.90936165,30.7191746 L5.23986098,30.8851674 C4.86719544,28.9446104 4.60611278,27.7633954 4.456613,27.3415225 C4.4054274,27.197082 4.30124105,26.6964899 4.25583463,26.6227912 C4.01149774,26.2262105 3.50756085,24.9515437 2.74402395,22.7987909 L3.97705122,21.6019353 Z" id="Path-37-Copy" fill="#FBDCC2" transform="translate(4.326693, 26.243551) scale(-1, 1) rotate(-27.000000) translate(-4.326693, -26.243551) "></path>
                    <path d="M8.30390845,21.1200791 C9.04532786,21.5573219 9.66282746,21.7759433 10.1564073,21.7759433 C10.7333191,21.7759433 11.4091735,21.1200791 12.1229439,21.1200791 C12.1229439,21.1200791 12.7404174,21.6642144 12.9983231,21.7759433 C13.5214347,22.0025637 13.89137,21.9462597 14.1286596,22.2718809 C14.4829383,22.7580406 11.6398578,27.0765612 12.1229439,28.0044085 C12.4450013,28.6229734 15.4311752,30.7694557 21.0814657,34.4438555 C17.7566967,38.9407666 14.2812254,41.1892222 10.6550517,41.1892222 C7.02887794,41.1892222 3.67188769,39.350425 0.584080898,35.6728307 L7.66616027,28.4175137 L7.66616027,24.6884704 L6.31915599,22.7580406 L8.30390845,21.1200791 Z" id="Path-36" fill="#F7746C"></path>
                    <path d="M8.83282371,47.0643823 L9.41228154,47.0643823 L9.41228154,45.1519478 C8.99347586,45.6606057 8.70143541,45.6606057 8.53616019,45.1519478 C8.28824736,44.3889608 8.40755083,46.8361613 7.45293386,46.1081651 C6.81652254,45.6228342 6.36046981,45.9415733 6.08477567,47.0643823 L8.38257374,47.0643823 L8.83282371,46.1081651 L8.83282371,47.0643823 Z" id="Path-38" fill="#F8B5AD"></path>
                    <path d="M11.2172211,47.2136364 L11.7966789,47.2136364 L11.7966789,45.3012018 C11.3778732,45.8098598 11.0858328,45.8098598 10.9205575,45.3012018 C10.6726447,44.5382149 10.7919482,46.9854154 9.83733121,46.2574191 C9.20091989,45.7720883 8.74486716,46.0908274 8.46917302,47.2136364 L10.7669711,47.2136364 L11.2172211,46.2574191 L11.2172211,47.2136364 Z" id="Path-38-Copy" fill="#F8B5AD"></path>
                </g>
                <path d="M43.962757,28.9225697 C44.1228645,28.9549132 44.2310835,29.0258711 44.2874141,29.1354435 C44.3437447,29.2450159 44.6719076,29.1872897 45.271903,28.9622647 C45.5520702,29.1735128 45.5862624,29.3776716 45.3744795,29.5747411 C45.1626966,29.7718106 44.9308114,29.8225245 44.6788238,29.7268828 L44.7654378,30.0697063 C45.3476951,30.1339752 45.6367802,30.0976946 45.6326931,29.9608646 C45.6265625,29.7556195 46.0482772,30.3533279 45.7293937,30.567167 C45.5168047,30.7097264 45.2326267,30.7802246 44.8768596,30.7786617 L44.799847,31.2216823 L45.5898698,31.2456369 C45.7035957,31.4898429 45.654435,31.6907057 45.4423877,31.8482251 C45.2303405,32.0057445 44.9519466,31.9973032 44.607206,31.8229013 L44.548379,32.1638053 L45.1716017,32.3321381 C45.0656039,32.7605662 44.909245,32.9209425 44.7025251,32.8132672 C44.3924452,32.6517543 43.0695311,32.7084658 42.7331861,31.7660785 C42.3968411,30.8236913 42.445143,29.4778023 42.736776,29.0884262 C43.028409,28.69905 43.300929,28.1126138 43.7045333,28.1248517 C43.9736029,28.1330102 44.1879447,27.9655057 44.3475588,27.6223383 C44.6111396,27.8508559 44.6410671,28.1255445 44.4373414,28.4464043 C44.2336156,28.767264 44.0754208,28.9259858 43.962757,28.9225697 Z" id="Path-30" fill="#FBDCC2" transform="translate(44.173919, 30.234023) scale(-1, 1) rotate(38.000000) translate(-44.173919, -30.234023) "></path>
                <g id="Group-3" transform="translate(0.000000, 14.000000)">
                    <g id="Kind" transform="translate(12.828288, 13.435524) rotate(-32.000000) translate(-12.828288, -13.435524) translate(4.828288, 2.935524)">
                        <path d="M9.93189479,14.6467316 L11.496692,14.5987968 L11.3591954,19.3021266 C11.0713052,19.7266357 10.8692857,19.9406844 10.7531367,19.9442728 C10.6369878,19.9478004 10.5397753,19.7429181 10.4614991,19.3296259 L9.93189479,14.6467316 Z" id="Rectangle" fill="#F7E1C6" transform="translate(10.714293, 17.271535) rotate(-26.000000) translate(-10.714293, -17.271535) "></path>
                        <path d="M11.6574909,14.0444639 L13.2222881,13.9965292 L13.0847915,18.6998589 C12.7969013,19.124368 12.5948818,19.3384168 12.4787328,19.3420052 C12.3625839,19.3455328 12.2653714,19.1406505 12.1870952,18.7273582 L11.6574909,14.0444639 Z" id="Rectangle-Copy-3" fill="#F7E1C6" transform="translate(12.439890, 16.669267) rotate(-26.000000) translate(-12.439890, -16.669267) "></path>
                        <polygon id="Triangle" fill="#F8B5AD" transform="translate(9.399627, 11.582420) rotate(-14.000000) translate(-9.399627, -11.582420) " points="9.57984261 6.31103675 14.4337169 16.6681267 4.36553753 16.8538032"></polygon>
                        <path d="M7.25691791,1.07933161 C8.16440881,2.96000805 9.51390217,3.90034627 11.305398,3.90034627 C13.0968938,3.90034627 14.0072372,3.53299435 14.0364283,2.79829049 C13.0884312,3.20857698 12.0762993,3.02465545 11.0000326,2.24652591 C9.92376591,1.46839638 9.2793751,0.747565472 9.06686021,0.0840331957 L7.25691791,1.07933161 Z" id="Path-31" fill="#E9C79C"></path>
                        <g id="Kopf-Kind" transform="translate(0.086709, 0.038069)">
                            <path d="M8.60506885,9.25888766 C9.84994613,9.25888766 9.76550044,9.70705901 10.564809,8.83016563 C11.3231678,7.99819674 12.9976901,5.87422181 12.9976901,4.62944383 C12.9976901,2.43696567 11.5515431,0.60046347 9.60970623,0.121637179 C9.28705868,0.04207739 8.95072624,-1.36424205e-11 8.60506885,-1.36424205e-11 C6.1790911,-1.36424205e-11 4.20568278,0.880248589 4.20568278,3.43701982 C4.20568278,4.3614852 2.46591528,6.86257567 1.72556572,6.88113161 C1.28490106,6.89217632 0.260408924,5.83317067 0.166046389,5.98536223 C-0.0876892603,6.39459693 1.56927113,8.36448 2.97832582,9.02152984 C3.59080957,9.30713433 4.80510756,9.6289195 5.41783804,9.78926918 C7.13075657,10.2375347 7.98223163,9.25888766 8.60506885,9.25888766 Z" id="Oval" fill="#E9C79C"></path>
                            <path d="M8.91455044,9.26082726 C9.58002124,9.26082726 9.99647145,8.79652939 10.4820071,8.37364596 C10.7134674,8.17205269 11.5625934,7.14887192 11.6740865,6.83591631 C12.0493778,5.7824913 12.0347166,6.24082317 12.0347166,5.07471607 C12.0347166,2.84674191 10.9764361,1.9462272 8.91455044,1.9462272 C6.85266477,1.9462272 5.25528316,3.01139922 5.25528316,5.23937338 C5.25528316,5.91409925 5.78389357,6.80782461 6.04543177,7.36510665 C6.64750408,8.64799414 7.47709194,9.26082726 8.91455044,9.26082726 Z" id="Oval" fill="#FBDCC2"></path>
                            <ellipse id="Oval" fill="#FBDCC2" cx="5.07842499" cy="4.4204066" rx="1" ry="1"></ellipse>
                            <path d="M8.47798616,7.6272245 C8.61294723,7.63050318 8.79839307,7.94194485 8.93335415,7.94522353 C9.05521571,7.94818397 9.24040857,7.70730175 9.36227013,7.71026219 L8.47798616,7.6272245 Z" id="Path-33" stroke="#CFBBAB" stroke-width="0.3"></path>
                            <path d="M8.71772657,5.66470654 C8.61545792,5.88498032 8.02166594,6.42546509 9.04288691,6.27454916" id="Path-35" stroke="#CFBBAB" stroke-width="0.3"></path>
                            <g id="Auge" transform="translate(6.014063, 2.751643)">
                                <path d="M1.20145495,1.67056189 C1.08463812,1.52580665 0.967821292,1.38105142 0.851004464,1.23629618" id="Path-32" stroke="#979797" stroke-width="0.3"></path>
                                <path d="M1.41110497,1.50864252 C1.28882811,1.36221321 1.16655124,1.21578391 1.04427438,1.06935461" id="Path-32-Copy" stroke="#979797" stroke-width="0.3" transform="translate(1.227690, 1.288999) rotate(24.000000) translate(-1.227690, -1.288999) "></path>
                                <ellipse id="Oval" fill="#FFFFFF" cx="1.51421744" cy="1.79284184" rx="1" ry="1"></ellipse>
                                <ellipse id="Oval" fill="#7AACA2" cx="1.51421744" cy="1.79284184" rx="1" ry="1"></ellipse>
                                <ellipse id="Oval" fill="#000000" cx="1.51421744" cy="1.79284184" rx="1" ry="1"></ellipse>
                                <ellipse id="Oval" fill="#D8D8D8" cx="1.36683678" cy="1.62841137" rx="1" ry="1"></ellipse>
                            </g>
                            <g id="Auge" transform="translate(10.775869, 5.277514) rotate(90.000000) translate(-10.775869, -5.277514) translate(9.275869, 3.777514)">
                                <path d="M1.20145495,1.67056189 C1.08463812,1.52580665 0.967821292,1.38105142 0.851004464,1.23629618" id="Path-32" stroke="#979797" stroke-width="0.3"></path>
                                <path d="M1.41110497,1.50864252 C1.28882811,1.36221321 1.16655124,1.21578391 1.04427438,1.06935461" id="Path-32-Copy" stroke="#979797" stroke-width="0.3" transform="translate(1.227690, 1.288999) rotate(24.000000) translate(-1.227690, -1.288999) "></path>
                                <ellipse id="Oval" fill="#FFFFFF" cx="1.51421744" cy="1.79284184" rx="1" ry="1"></ellipse>
                                <ellipse id="Oval" fill="#7AACA2" cx="1.51421744" cy="1.79284184" rx="1" ry="1"></ellipse>
                                <ellipse id="Oval" fill="#000000" cx="1.51421744" cy="1.79284184" rx="1" ry="1"></ellipse>
                                <ellipse id="Oval" fill="#D8D8D8" cx="1.36683678" cy="1.62841137" rx="1" ry="1"></ellipse>
                            </g>
                        </g>
                    </g>
                    <path d="M20.15852,19.0340771 C20.7388625,19.0150084 21.269067,19.137794 21.4563771,18.7998778 C21.6436871,18.4619615 21.5762312,17.9356044 20.9958887,17.9546731 C20.7918464,17.9613774 20.6011081,18.1231091 20.4080116,18.2187593 C20.0518978,18.3951599 19.4776451,18.4288871 19.4705798,18.6527456 C19.4596834,18.9979876 19.5781774,19.0531458 20.15852,19.0340771 Z" id="Oval" fill="#D8D8D8" transform="translate(20.509699, 18.497460) rotate(-29.000000) translate(-20.509699, -18.497460) "></path>
                    <path d="M21.5374177,17.2004224 C22.1343506,17.1784284 22.6791593,17.294665 22.8731323,16.9649769 C23.0671054,16.6352889 22.9998057,16.1238855 22.4028728,16.1458795 C22.1929975,16.1536124 21.9961934,16.3120073 21.7972246,16.4061618 C21.430281,16.5798039 20.8395534,16.6160149 20.8314042,16.8337264 C20.8188362,17.1694881 20.9404847,17.2224164 21.5374177,17.2004224 Z" id="Oval-Copy-7" fill="#D8D8D8" transform="translate(21.900422, 16.674973) rotate(-51.000000) translate(-21.900422, -16.674973) "></path>
                </g>
                <path d="M13.6976562,29.259237 C13.982628,29.2856223 14.1726186,29.3505823 14.2676281,29.4541168 C14.3626376,29.5576513 14.9533609,29.4926913 16.0397981,29.259237 C16.5301896,29.4538511 16.5804971,29.6488195 16.1907204,29.844142 C15.8009438,30.0394645 15.3829984,30.0948915 14.9368843,30.0104229 L15.0736458,30.3369639 C16.1128463,30.3817069 16.6324465,30.3384691 16.6324465,30.2072506 C16.6324465,30.0104229 17.3556339,30.5718644 16.7731772,30.7864005 C16.3848727,30.9294245 15.8722292,31.0053635 15.2352468,31.0142177 L15.0736458,31.441696 L16.4870447,31.441696 C16.6776298,31.6727892 16.5788551,31.8670197 16.1907204,32.0243875 C15.8025858,32.1817552 15.3045222,32.1817552 14.6965296,32.0243875 L14.572955,32.3533191 L15.6799455,32.4967563 C15.4672217,32.9110714 15.1786545,33.0695606 14.8142439,32.972224 C14.2676281,32.8262191 11.8956755,32.9191564 11.3437939,32.0243875 C10.7919123,31.1296185 10.9503936,29.8363503 11.4934423,29.4541168 C12.036491,29.0718832 12.5558546,28.5010562 13.2779273,28.5010562 C13.7593091,28.5010562 14.1520866,28.3340375 14.4562598,28 C14.9160266,28.2116732 14.954925,28.4744643 14.572955,28.7883734 C14.190985,29.1022824 13.8992187,29.259237 13.6976562,29.259237 Z" id="Path-30" fill="#FBDCC2"></path>
            </g>
        </g>
    </g>
</svg>