<?xml version="1.0" encoding="UTF-8"?>
<svg width="218px" height="219px" viewBox="0 0 218 219" version="1.1" xmlns="http://www.w3.org/2000/svg" xmlns:xlink="http://www.w3.org/1999/xlink">
    <!-- Generator: Sketch 59.1 (86144) - https://sketch.com -->
    <title>Group 2 Copy 5</title>
    <desc>Created with Sketch.</desc>
    <defs>
        <linearGradient x1="50%" y1="73.9046664%" x2="50%" y2="100%" id="linearGradient-1">
            <stop stop-color="#E4F5F0" offset="0%"></stop>
            <stop stop-color="#C4E7DC" offset="100%"></stop>
        </linearGradient>
        <circle id="path-2" cx="109" cy="109" r="109"></circle>
    </defs>
    <g id="Page-1" stroke="none" stroke-width="1" fill="none" fill-rule="evenodd">
        <g id="Group-2-Copy-5">
            <g id="Shape">
                <mask id="mask-3" fill="white">
                    <use xlink:href="#path-2"></use>
                </mask>
                <use id="Mask" fill="url(#linearGradient-1)" xlink:href="#path-2"></use>
                <path d="M46.3860653,188 L201,150.820097 L149.678106,149.5 C133.772448,149.5 102.009201,125.500619 66.6998887,120.428872 C46.7836886,117.568155 28.3028798,108.470359 0,111.674387 C0,139.08685 10.1303698,164.137526 26.8510291,183.403242 C37.3533545,185.890985 46.3860653,188 46.3860653,188 Z" fill="#E8F2C7" mask="url(#mask-3)"></path>
            </g>
            <path d="M173.224067,20 C124.728219,32.7495092 89,76.2882426 89,128.06171 C89,162.055906 104.420187,192.485229 128.724175,213 C179.536625,203.62867 218,159.745629 218,106.990231 C218,71.2799734 200.369348,39.6360901 173.224067,20 Z" id="Shape" fill="#FFFFFB" opacity="0.300000012"></path>
            <path d="M211,149.544359 C184.622756,142.653377 166.571517,160.553522 126.287031,169.1806 C96.661185,175.525089 45.6788846,173.889043 18,168.777258 C32.0637657,190.691044 54.3663147,207.825605 82.0719503,215.203262 C137.230484,229.891277 193.445969,200.693265 211,149.544359 Z" id="Familiy-Boden" fill="#CAE3DD"></path>
            <g id="Family" transform="translate(10.000000, 19.000000)">
                <g id="Mann" transform="translate(30.000000, 0.000000)">
                    <path d="M74.1472656,97.5110844 C74.4797327,97.5427468 74.7013884,97.6206987 74.8122328,97.7449401 C74.9230771,97.8691815 75.6122544,97.7912296 76.8797644,97.5110844 C77.4518879,97.7446214 77.5105799,97.9785834 77.0558405,98.2129704 C76.6011011,98.4473574 76.1134982,98.5138698 75.5930317,98.4125075 L75.7525868,98.8043567 C76.9649873,98.8580482 77.5711876,98.8061629 77.5711876,98.6487007 C77.5711876,98.4125075 78.4149062,99.0862373 77.7353734,99.3436805 C77.2823515,99.5153094 76.6842675,99.6064362 75.9411213,99.6170612 L75.7525868,100.130035 L77.4015521,100.130035 C77.6239014,100.407347 77.5086642,100.640424 77.0558405,100.829265 C76.6030168,101.018106 76.0219426,101.018106 75.3126178,100.829265 L75.1684475,101.223983 L76.4599364,101.396108 C76.2117586,101.893286 75.8750969,102.083473 75.4499513,101.966669 C74.8122328,101.791463 72.0449547,101.902988 71.4010929,100.829265 C70.7572311,99.7555422 70.9421258,98.2036204 71.5756827,97.7449401 C72.2092395,97.2862598 72.8151637,96.6012675 73.6575818,96.6012675 C74.2191939,96.6012675 74.6774344,96.400845 75.0323031,96 C75.5686977,96.2540078 75.6140792,96.5693571 75.1684475,96.946048 C74.7228158,97.3227389 74.3824219,97.5110844 74.1472656,97.5110844 Z" id="Path-30-Copy" fill="#FBDCC2" transform="translate(74.500000, 99.000000) scale(-1, 1) rotate(38.000000) translate(-74.500000, -99.000000) "></path>
                    <g id="Oberkörper" transform="translate(10.000000, 58.000000)">
                        <rect id="Rectangle" fill="#FFFFFF" x="30" y="2" width="12" height="49"></rect>
                        <polygon id="Path-42" fill="#7BACAE" points="74.5120141 19.5 107.037056 31.3891536 103.610728 38.2021461 68.2125318 33.3956421 64.3669102 29"></polygon>
                        <polygon id="Path-40" fill="#99C4C7" transform="translate(60.552256, 30.470959) rotate(4.000000) translate(-60.552256, -30.470959) " points="67.2728712 11.9709587 73.8819357 18.6290574 60.7225764 51.9709587 47.2225764 51.9709587 60.7225764 8.97095873"></polygon>
                        <polygon id="Path-40-Copy" fill="#99C4C7" transform="translate(12.983395, 31.330338) scale(-1, 1) rotate(8.000000) translate(-12.983395, -31.330338) " points="17.7731459 12.8303383 22.4833951 19.4884369 13.1047816 52.8303383 3.48339505 52.8303383 13.1047816 9.83033832"></polygon>
                        <polygon id="Path-27" fill="#7BACAE" points="41.7053693 0 65.5502948 10.6987693 46.6528354 53.8200901 35 53.8200901 37.2411024 0"></polygon>
                        <polygon id="Path-27-Copy" fill="#7BACAE" transform="translate(22.000000, 26.910045) scale(-1, 1) translate(-22.000000, -26.910045) " points="15.2676697 0 34 10.6987693 19.1543486 53.8200901 10 53.8200901 11.7605872 0"></polygon>
                    </g>
                    <g id="Kopfmann" transform="translate(23.000000, 0.000000)">
                        <path d="M19.342059,55.0992051 C21.9362493,55.1186471 24.5304396,55.138089 27.1246298,55.157531" id="Path" stroke="#979797"></path>
                        <path d="M49,33.4562306 C49.3571167,31 50.5270843,30.3859423 52.5099026,31.6140577 C54.492721,32.842173 54.0663279,35.7305171 51.2307235,40.27909 L49,46.1346458 L49,33.4562306 Z" id="Path-24" fill="#FBDCC2"></path>
                        <path d="M13,2.27373675e-13 C16.0838673,4.48915489 21.7560043,6.73373233 30.0164109,6.73373233 C42.4070209,6.73373233 48.5997165,18.0463641 48.5997165,24.8058765 C48.5997165,31.565389 52.4309328,30.495294 47.4189768,55.977996 C44.8633329,68.9718678 29.7404797,74.383311 15.3304093,71.0287602 C12.3770986,70.3412528 9.60029551,68.3402024 7,65.025609 L13,2.27373675e-13 Z" id="Path-22" fill="#848484"></path>
                        <path d="M13,0 C12.434293,1.68630055 11.6035666,1.25162971 11.2010667,1.98924138 C10.6037896,3.08379719 8.92307858,6.16088537 9.18805476,7.69370579 C9.35235974,8.64416873 9.55013424,9.86142703 9.18805476,11.399368 C8.23409749,15.4513237 5.73956739,14.5988931 4.53122882,17.2163475 C-3.2802489,34.1372564 0.387417173,47.1056161 5.22875591,63.7017516 C5.27493714,63.8600611 6.28286991,64.8011032 7.48310375,66 L13,0 Z" id="Path-23" fill="#848484"></path>
                        <path d="M1.58265176,36.7127615 C1.66546535,40.250562 1.0431143,43.8922799 1.83109252,47.326163 C2.11340365,48.5564298 3.34490813,52.0872783 7.30929726,53.3492202 C8.46260522,53.7163404 9.9354223,53.3492202 11.5741708,53.3492202 C11.9568291,53.3492202 12.5631061,55.6445969 14.5118941,56.9109508 C17.9344967,59.1350133 24.1690316,60.6640398 25.7401759,60.0916487 C28.268685,59.1704753 29.4119842,56.7934781 31.9066841,55.7693038 C38.658426,52.9974433 41.6466634,59.678029 46.3429491,47.7829729 C47.9515532,43.7085963 47.3692442,38.7879457 47.0989961,34.3644488 C46.5293744,25.040721 41.6086284,19.8504641 38.1828318,18.9416816 C33.7483527,17.7653196 29.3993224,23.6102401 23.7223739,23.026474 C21.7720212,22.8259174 19.5670162,20.9157388 17.7057253,20.2518535 C5.43660662,15.8757043 5.49940574,18.4943833 1.58265176,28.7716643 L1.58265176,36.7127615 Z" id="Path-18" fill="#FBDCC2"></path>
                        <circle id="Oval" fill="#FFFFFF" cx="11" cy="33" r="4"></circle>
                        <circle id="Oval-Copy" fill="#FFFFFF" cx="39" cy="33" r="4"></circle>
                        <circle id="Oval" fill="#848484" cx="38.5" cy="33.5" r="2.5"></circle>
                        <circle id="Oval" fill="#000000" cx="38.5" cy="33.5" r="1.5"></circle>
                        <circle id="Oval-Copy-2" fill="#848484" cx="10.5" cy="33.5" r="2.5"></circle>
                        <circle id="Oval-Copy-25" fill="#000000" cx="10.5" cy="33.5" r="1.5"></circle>
                        <circle id="Oval" fill="#FFFFFF" cx="37.5" cy="33.5" r="1"></circle>
                        <path d="M18,56.3823666 C18.1804533,56.2852577 16.8343503,55.4342769 17,55.332343 C17.8392969,54.8158749 20.0352415,55.0345546 20.841799,54.9701886 C21.7386741,54.898615 22.503418,55.8578673 23.10663,55.8252735 C23.8911088,55.7828853 25.9396577,54.7624983 26.3665259,54.9701886 C26.5974003,55.0825193 27.02104,54.4678992 27.1246298,54.628368 C27.4738041,55.1692669 26.7942562,56.6707472 25.8787512,57.3531102 C24.3615195,58.4839644 20.4693291,58.645709 18,56.3823666 C17.3922059,55.8252735 17.0672748,55.373999 17,55.332343" id="Path-26" stroke="#CFBBAB"></path>
                        <path d="M4.53576815,32.1350499 C7.0868052,28.5327383 10.8385824,28.1996097 15.7910997,31.1356642" id="Path-39" fill="#848484"></path>
                        <path d="M33.7753911,31.45329 C38.1908541,27.9044175 41.9323904,28.1316708 45,32.1350499" id="Path-20" fill="#848484"></path>
                        <path d="M8,50.2025899 C12.0121336,50.823893 14.9134435,50.6602013 16.7039298,49.7115149 C18.494416,48.7628284 20.5469001,48.7628284 22.8613821,49.7115149 C21.4491651,52.1706292 20.1986335,53.5744565 19.1097873,53.9229967 C18.4187861,54.1441865 14.9372428,55.1133031 12.0445984,53.9229967 C10.9343021,53.4661162 9.58610267,52.2259806 8,50.2025899 Z" id="Path-21" fill="#848484"></path>
                        <path d="M23,50.2025899 C27.5894972,50.823893 30.9083183,50.6602013 32.9564633,49.7115149 C35.0046083,48.7628284 37.3524539,48.7628284 40,49.7115149 C38.3845587,52.1706292 36.9540702,53.5744565 35.7085343,53.9229967 C34.918095,54.1441865 30.9355424,55.1133031 27.6266338,53.9229967 C26.356561,53.4661162 24.8143498,52.2259806 23,50.2025899 Z" id="Path-21-Copy" fill="#848484" transform="translate(31.500000, 51.752346) scale(-1, 1) translate(-31.500000, -51.752346) "></path>
                        <path d="M18.6673049,32 C18.6673049,33.5131116 19.1814337,37.0172295 18.6673049,39.5673229 C17.730129,44.2157417 16.5194441,49.3256962 24.7918369,45.1640613" id="Path-25" stroke-opacity="0.368689904" stroke="#848484" stroke-linejoin="round"></path>
                        <circle id="Oval" fill="#FFFFFF" cx="9.5" cy="33.5" r="1"></circle>
                    </g>
                    <g id="Beine" transform="translate(21.000000, 107.000000)">
                        <rect id="Rectangle" fill="#848484" x="4" y="2" width="44" height="4"></rect>
                        <path d="M18.9274164,47.2401533 L6.03961325e-14,47.2401533 C2.36982481,42.4133844 5.52439421,40 9.4637082,40 C11.2704451,40 14.1768634,40 18.1042798,41 C18.7997354,41.1770771 19.0741143,43.2571282 18.9274164,47.2401533 Z" id="Path-28" fill="#848484"></path>
                        <path d="M46.963621,47.2401533 L29,47.2401533 C31.2491519,42.4133844 34.2430887,40 37.9818105,40 C39.6965473,40 42.454969,40 46.1823991,41 C46.8424417,41.1770771 47.102849,43.2571282 46.963621,47.2401533 Z" id="Path-28-Copy" fill="#848484" transform="translate(38.000000, 43.620077) scale(-1, 1) translate(-38.000000, -43.620077) "></path>
                        <path d="M4,6 C4.42168752,24.1128408 6.17277078,35.9132824 9.25324977,41.4013247 C9.83738589,42.4419953 10.5002091,41.125173 10.993063,41.4013247 C12.1934375,42.0739086 13.0636833,42.8689974 14.2592629,42.434647 C16.455869,41.6366268 18.767281,41.4013247 18.767281,41.4013247 C18.767281,41.4013247 18.767281,34.2255931 18.767281,19.8741299 C22.1327982,18.0681052 26.0411559,18.0681052 30.4923541,19.8741299 C32.710825,20.77425 31.6921067,23.2094177 31.4890487,25.5300098 C31.1929539,28.9138468 30.892401,32.7325951 30.4923541,36.8123033 C30.3410624,38.3551877 28.8169765,40.0577654 29.4456487,41.4013247 C30.03945,42.6703603 30.6078913,41.6733652 31.4890487,41.4013247 C32.4751933,41.0968715 33.78844,41.4278466 34.6742452,41.4013247 C37.5702824,41.3146147 39.7605574,42.0320286 39.7605574,41.4013247 C39.7605574,40.7373313 42.3658162,28.9368897 47.5763337,6 L4,6 Z" id="Path-29" fill="#40514E"></path>
                        <circle id="Oval" stroke="#979797" fill="#D8D8D8" cx="23" cy="4" r="3.5"></circle>
                        <rect id="Rectangle" fill="#99C4C7" x="29" y="40" width="11" height="2"></rect>
                        <rect id="Rectangle-Copy" fill="#99C4C7" x="9" y="41" width="10" height="2"></rect>
                    </g>
                    <polygon id="Path-41" fill="#7BACAE" points="4.60268503 100.283021 1.10803249 93.2603277 0.419048811 82.1623818 14.5374994 72.8690252 16.8728213 81.2539805 7.66428884 87.8402466 6.80807637 91.7440169"></polygon>
                </g>
                <g id="Mutter" transform="translate(103.000000, 5.000000)">
                    <g id="Kopf-Mutter" transform="translate(38.241913, 34.000000) rotate(-8.000000) translate(-38.241913, -34.000000) translate(4.241913, 5.000000)">
                        <path d="M30.2058784,54 C38.1411321,54 49.0132754,60.6866692 54.1083285,55.5724217 C58.9423549,50.7201844 58.2058784,34.2598365 58.2058784,27 C58.2058784,12.0883118 45.6698514,0 30.2058784,0 C14.7419054,0 2.20587844,12.0883118 2.20587844,27 C2.20587844,32.3916985 -1.81896815,44.3602342 1.0046846,48.5757304 C5.99033896,56.0189287 20.3332965,54 30.2058784,54 Z" id="Oval" fill="#E9C79C"></path>
                        <path d="M31.7096317,57.4231726 C36.1658605,57.4231726 38.9545591,54.6033897 42.2058784,52.0351258 C43.7558189,50.8108055 49.4418681,44.596804 50.188465,42.6961558 C52.7015493,36.2984744 52.6033724,39.0820245 52.6033724,32 C52.6033724,18.4690236 45.5167505,13 31.7096317,13 C17.902513,13 7.20587844,19.4690236 7.20587844,33 C7.20587844,37.0977584 10.7456415,42.5255488 12.4969942,45.910045 C16.5286841,53.7013025 22.0838991,57.4231726 31.7096317,57.4231726 Z" id="Oval" fill="#FBDCC2"></path>
                        <g id="Group" transform="translate(16.205878, 23.000000)">
                            <path d="M2.37785935,4.76507587 C1.58523956,3.85474028 0.792619782,2.94440469 0,2.0340691" id="Path-32" stroke="#979797"></path>
                            <path d="M3.7447956,3.73100677 C2.95217581,2.82067118 2.15955603,1.91033559 1.36693625,1" id="Path-32-Copy" stroke="#979797" transform="translate(2.555866, 2.365503) rotate(24.000000) translate(-2.555866, -2.365503) "></path>
                            <circle id="Oval" fill="#FFFFFF" cx="4.5" cy="5.5340691" r="3.5"></circle>
                            <circle id="Oval" fill="#7AACA2" cx="4.5" cy="5.5340691" r="2.5"></circle>
                            <circle id="Oval" fill="#000000" cx="4.5" cy="5.5340691" r="1.5"></circle>
                            <circle id="Oval" fill="#D8D8D8" cx="3.5" cy="4.5" r="1"></circle>
                        </g>
                        <path d="M49.7648244,33.0115724 C48.9722046,32.1012368 48.1795848,31.1909012 47.3869651,30.2805656" id="Path-32-Copy-2" stroke="#979797" transform="translate(48.575895, 31.646069) rotate(-76.000000) translate(-48.575895, -31.646069) "></path>
                        <path d="M48.5837378,31.7310068 C47.791118,30.8206712 46.9984982,29.9103356 46.2058784,29" id="Path-32-Copy-3" stroke="#979797" transform="translate(47.394808, 30.365503) rotate(93.000000) translate(-47.394808, -30.365503) "></path>
                        <path d="M18.9436925,42.6961558 C26.3122669,49.1681458 32.8169951,48.0062309 40.7700177,43.1727078" id="Path-34" stroke="#CFBBAB"></path>
                        <path d="M22.7057855,10.5800425 C28.7514351,21.5266808 37.7416784,27 49.6765155,27 C61.6113525,27 67.6760056,24.8617967 67.8704748,20.58539 C61.5549754,22.9734976 54.8122137,21.9029666 47.6421898,17.373797 C40.4721659,12.8446274 36.1792733,8.64896933 34.7635119,4.78682288 L22.7057855,10.5800425 Z" id="Path-31" fill="#E9C79C"></path>
                        <ellipse id="Oval" fill="#FBDCC2" cx="6.20587844" cy="28.5" rx="2" ry="4.5"></ellipse>
                        <circle id="Oval-Copy-3" fill="#FFFFFF" cx="44.7058784" cy="33.5" r="3.5"></circle>
                        <circle id="Oval-Copy-4" fill="#7AACA2" cx="44.7058784" cy="33.5" r="2.5"></circle>
                        <circle id="Oval-Copy-5" fill="#000000" cx="44.7058784" cy="33.5" r="1.5"></circle>
                        <circle id="Oval-Copy-6" fill="#D8D8D8" cx="44.7058784" cy="32.5" r="1"></circle>
                        <path d="M24.2058784,46.4625937 C25.520014,46.4908362 27.3257272,49.1735959 28.6398628,49.2018384 C29.8264465,49.2273397 31.6296963,47.1523794 32.8162801,47.1778807 L24.2058784,46.4625937 Z" id="Path-33" stroke="#CFBBAB"></path>
                        <path d="M28.7450854,36.2984744 C28.0993051,38.0300445 24.3497775,42.27879 30.7983258,41.0924413" id="Path-35" stroke="#CFBBAB"></path>
                    </g>
                    <rect id="Rectangle" fill="#FBDCC2" x="31" y="60.7915608" width="9" height="8"></rect>
                    <path d="M27,127.791561 L32.2293763,127.791561 L32.2293763,142.791561 C31.3079277,144.11848 30.653125,144.78194 30.2649683,144.78194 C29.8768116,144.78194 29.5316143,144.11848 29.2293763,142.791561 L27,127.791561 Z" id="Rectangle" fill="#F7E1C6"></path>
                    <path d="M35,127.791561 L40.2293763,127.791561 L40.2293763,143.574163 C39.659728,144.379348 39.1912654,144.78194 38.8239887,144.78194 C38.4567119,144.78194 37.9251745,144.11848 37.2293763,142.791561 L35,127.791561 Z" id="Rectangle-Copy-2" fill="#F7E1C6"></path>
                    <path d="M48.3791189,70.4340962 C49.8270982,77.6350717 51.019493,82.7940313 51.9563033,85.9109749 C52.8931137,89.0279185 54.205045,93.5640913 55.8920972,99.5194932 L54.0250882,100.426456 C52.4500786,94.1453782 51.3669993,90.3184679 50.7758503,88.9457249 C50.5734533,88.4757264 50.1379109,86.8545877 49.9645764,86.6127356 C49.0318445,85.3113028 47.0560042,81.1581033 44.0370555,74.1531371 L48.3791189,70.4340962 Z" id="Path-37" fill="#FBDCC2"></path>
                    <path d="M13.0288932,68 C14.3724374,75.2009755 15.478831,80.359935 16.3480742,83.4768787 C17.2173173,86.5938223 18.6034441,91.2779748 20.5064545,97.5293363 L18.2676485,97.9923595 C16.806236,91.711282 15.8012735,87.8843717 15.252761,86.5116286 C15.0649618,86.0416301 14.6608328,84.4204915 14.5,84.1786393 C13.6345411,82.8772065 11.8012078,78.7240071 9,71.7190409 L13.0288932,68 Z" id="Path-37-Copy" fill="#FBDCC2" transform="translate(14.753227, 82.996180) scale(-1, 1) rotate(-27.000000) translate(-14.753227, -82.996180) "></path>
                    <path d="M28.4341038,66.7915608 C30.9728597,68.1743269 33.0872915,68.8657099 34.7773991,68.8657099 C36.7528511,68.8657099 39.0671002,66.7915608 41.5111809,66.7915608 C41.5111809,66.7915608 43.6255231,68.5123709 44.5086395,68.8657099 C46.2998697,69.5823895 47.5665958,69.4043299 48.3791189,70.4340962 C49.5922339,71.9715604 39.8570056,85.628741 41.5111809,88.5630278 C42.6139644,90.519219 52.839171,97.3073993 72.1868007,108.927569 C60.8021826,123.148903 48.901532,130.25957 36.4848489,130.25957 C24.0681658,130.25957 12.5732162,124.444435 2,112.814163 L26.2503372,89.8694594 L26.2503372,78.0764817 L21.6379478,71.9715604 L28.4341038,66.7915608 Z" id="Path-36" fill="#F7746C"></path>
                    <path d="M30.2452066,148.839573 L32.2293763,148.839573 L32.2293763,142.791561 C30.795309,144.400175 29.795309,144.400175 29.2293763,142.791561 C28.3804774,140.37864 28.7889943,148.117831 25.5202109,145.815567 C23.341022,144.280724 21.7794139,145.288726 20.8353866,148.839573 L28.7034682,148.839573 L30.2452066,145.815567 L30.2452066,148.839573 Z" id="Path-38" fill="#F8B5AD"></path>
                    <path d="M38.4098199,149.311584 L40.3939897,149.311584 L40.3939897,143.263572 C38.9599223,144.872186 37.9599223,144.872186 37.3939897,143.263572 C36.5450908,140.850651 36.9536077,148.589842 33.6848243,146.287578 C31.5056353,144.752735 29.9440272,145.760737 29,149.311584 L36.8680815,149.311584 L38.4098199,146.287578 L38.4098199,149.311584 Z" id="Path-38-Copy" fill="#F8B5AD"></path>
                </g>
                <path d="M144.945703,91.2427081 C145.468151,91.3316075 145.816467,91.550475 145.990652,91.8993106 C146.164836,92.2481462 147.247828,92.0292787 149.23963,91.2427081 C150.138681,91.8984157 150.230911,92.5553165 149.516321,93.2134106 C148.80173,93.8715046 148.035497,94.058253 147.217621,93.7736557 L147.468351,94.8738601 C149.373552,95.0246112 150.326152,94.8789315 150.326152,94.4368212 C150.326152,93.7736557 151.651995,95.6653033 150.584158,96.3881328 C149.872267,96.8700192 148.93242,97.1258784 147.764619,97.1557104 L147.468351,98.5959997 L150.059582,98.5959997 C150.408988,99.3746151 150.227901,100.02903 149.516321,100.559244 C148.804741,101.089458 147.891624,101.089458 146.776971,100.559244 L146.550417,101.667503 L148.5799,102.150782 C148.189906,103.546721 147.660867,104.080714 146.992781,103.752761 C145.990652,103.260831 141.642072,103.573962 140.630289,100.559244 C139.618506,97.5445267 139.909055,93.1871584 140.904644,91.8993106 C141.900234,90.6114628 142.8524,88.6881933 144.1762,88.6881933 C145.058733,88.6881933 145.778825,88.1254622 146.336476,87 C147.179382,87.7131839 147.250696,88.5985979 146.550417,89.656242 C145.850139,90.7138861 145.315234,91.2427081 144.945703,91.2427081 Z" id="Path-30" fill="#FBDCC2" transform="translate(145.500000, 95.423173) scale(-1, 1) rotate(38.000000) translate(-145.500000, -95.423173) "></path>
                <g id="Group-3" transform="translate(0.000000, 45.000000)">
                    <g id="Kind" transform="translate(39.500000, 42.000000) rotate(-32.000000) translate(-39.500000, -42.000000) translate(13.000000, 10.000000)">
                        <path d="M33.5191351,45.9629217 L38.7485114,45.9629217 L38.7485114,60.9629217 C37.8270628,62.2898413 37.1722601,62.9533011 36.7841034,62.9533011 C36.3959467,62.9533011 36.0507494,62.2898413 35.7485114,60.9629217 L33.5191351,45.9629217 Z" id="Rectangle" fill="#F7E1C6" transform="translate(36.133823, 54.458111) rotate(-26.000000) translate(-36.133823, -54.458111) "></path>
                        <path d="M39.3733499,44.0691536 L44.6027262,44.0691536 L44.6027262,59.0691536 C43.6812776,60.3960732 43.0264749,61.0595331 42.6383182,61.0595331 C42.2501615,61.0595331 41.9049642,60.3960732 41.6027262,59.0691536 L39.3733499,44.0691536 Z" id="Rectangle-Copy-3" fill="#F7E1C6" transform="translate(41.988038, 52.564343) rotate(-26.000000) translate(-41.988038, -52.564343) "></path>
                        <polygon id="Triangle" fill="#F8B5AD" transform="translate(32.147462, 36.209547) rotate(-14.000000) translate(-32.147462, -36.209547) " points="32.1474623 19.7095471 49.1474623 52.7095471 15.1474623 52.7095471"></polygon>
                        <path d="M24.6196409,3.39384612 C27.6983721,9.30743781 32.27663,12.2642337 38.3544146,12.2642337 C44.4321992,12.2642337 47.5206079,11.1091337 47.6196409,8.79893375 C44.4034893,10.089037 40.9697555,9.51071484 37.3184396,7.06396735 C33.6671237,4.61721986 31.4809793,2.35064197 30.7600065,0.264233654 L24.6196409,3.39384612 Z" id="Path-31" fill="#E9C79C"></path>
                        <g id="Kopf-Kind" transform="translate(0.294168, 0.119705)">
                            <path d="M29.1933445,29.1136104 C33.4166845,29.1136104 33.1301961,30.5228386 35.8419106,27.7655385 C38.4147,25.1494988 44.0956432,18.4708802 44.0956432,14.5568052 C44.0956432,7.6627854 39.1894803,1.888095 32.6016525,0.382475474 C31.5070464,0.132307982 30.3660133,-1.36424205e-11 29.1933445,-1.36424205e-11 C20.9630322,-1.36424205e-11 14.2680958,2.76785024 14.2680958,10.8073517 C14.2680958,13.7142371 8.36580343,21.5786563 5.85411174,21.6370035 C4.35912366,21.6717324 0.883456897,18.3417992 0.563324886,18.8203497 C-0.297492424,20.1071457 5.32387057,26.3012384 10.1041948,28.3672633 C12.1820921,29.265317 16.3016895,30.2771371 18.3804238,30.78134 C24.191629,32.1908643 27.0803223,29.1136104 29.1933445,29.1136104 Z" id="Oval" fill="#E9C79C"></path>
                            <path d="M30.2432841,29.1197092 C32.500944,29.1197092 33.9137827,27.6597728 35.5609991,26.3300598 C36.3462456,25.6961707 39.2269695,22.4788851 39.605218,21.4948287 C40.8784223,18.1824432 40.8286829,19.6236201 40.8286829,15.9569175 C40.8286829,8.9512842 37.2383867,6.11970924 30.2432841,6.11970924 C23.2481816,6.11970924 17.8289441,9.46903201 17.8289441,16.4746653 C17.8289441,18.5962707 19.6222948,21.4064972 20.5095828,23.1588127 C22.5521585,27.1927192 25.3665979,29.1197092 30.2432841,29.1197092 Z" id="Oval" fill="#FBDCC2"></path>
                            <ellipse id="Oval" fill="#FBDCC2" cx="17.2289395" cy="13.8995093" rx="1" ry="2.5"></ellipse>
                            <path d="M28.7622069,23.9830151 C29.2200725,23.9933245 29.8492115,24.9726205 30.3070771,24.98293 C30.7205017,24.9922388 31.3487824,24.2348097 31.7622069,24.2441185 L28.7622069,23.9830151 Z" id="Path-33" stroke="#CFBBAB"></path>
                            <path d="M29.5755443,17.8120812 C29.2285902,18.5047093 27.2141062,20.2042075 30.6786753,19.729668" id="Path-35" stroke="#CFBBAB"></path>
                            <g id="Auge" transform="translate(23.290257, 11.522626)">
                                <path d="M1.18892967,2.38253793 C0.792619782,1.92737014 0.396309891,1.47220234 0,1.01703455" id="Path-32" stroke="#979797"></path>
                                <path d="M1.8723978,1.86550339 C1.47608791,1.41033559 1.07977802,0.955167796 0.683468125,0.5" id="Path-32-Copy" stroke="#979797" transform="translate(1.277933, 1.182752) rotate(24.000000) translate(-1.277933, -1.182752) "></path>
                                <circle id="Oval" fill="#FFFFFF" cx="2.25" cy="2.76703455" r="1.75"></circle>
                                <circle id="Oval" fill="#7AACA2" cx="2.25" cy="2.76703455" r="1.25"></circle>
                                <circle id="Oval" fill="#000000" cx="2.25" cy="2.76703455" r="1"></circle>
                                <circle id="Oval" fill="#D8D8D8" cx="1.75" cy="2.25" r="1"></circle>
                            </g>
                            <g id="Auge" transform="translate(35.910240, 16.429005) rotate(90.000000) translate(-35.910240, -16.429005) translate(33.910240, 13.929005)">
                                <path d="M1.18892967,2.38253793 C0.792619782,1.92737014 0.396309891,1.47220234 -2.27373675e-11,1.01703455" id="Path-32" stroke="#979797"></path>
                                <path d="M1.8723978,1.86550339 C1.47608791,1.41033559 1.07977802,0.955167796 0.683468125,0.5" id="Path-32-Copy" stroke="#979797" transform="translate(1.277933, 1.182752) rotate(24.000000) translate(-1.277933, -1.182752) "></path>
                                <circle id="Oval" fill="#FFFFFF" cx="2.25" cy="2.76703455" r="1.75"></circle>
                                <circle id="Oval" fill="#7AACA2" cx="2.25" cy="2.76703455" r="1.25"></circle>
                                <circle id="Oval" fill="#000000" cx="2.25" cy="2.76703455" r="1"></circle>
                                <circle id="Oval" fill="#D8D8D8" cx="1.75" cy="2.25" r="1"></circle>
                            </g>
                        </g>
                    </g>
                    <path d="M65.5997604,60.1100558 C67.532757,60.1100558 69.3135089,60.5591 69.9024858,59.4965576 C70.4914627,58.4340152 70.2111579,56.7411377 68.2781613,56.7411377 C67.5985403,56.7411377 66.979592,57.2390482 66.345827,57.5250694 C65.1770204,58.0525574 63.2658715,58.1001454 63.2658715,58.8163601 C63.2658715,59.9209296 63.6667638,60.1100558 65.5997604,60.1100558 Z" id="Oval" fill="#D8D8D8" transform="translate(66.721292, 58.472706) rotate(-29.000000) translate(-66.721292, -58.472706) "></path>
                    <path d="M70.3338888,54.368918 C72.2668855,54.368918 74.0476374,54.8179623 74.6366143,53.7554199 C75.2255912,52.6928774 74.9452864,51 73.0122898,51 C72.3326687,51 71.7137204,51.4979105 71.0799555,51.7839317 C69.9111489,52.3114197 68,52.3590077 68,53.0752223 C68,54.1797918 68.4008922,54.368918 70.3338888,54.368918 Z" id="Oval-Copy-7" fill="#D8D8D8" transform="translate(71.455421, 52.731568) rotate(-51.000000) translate(-71.455421, -52.731568) "></path>
                </g>
                <path d="M43.4755169,91.2427081 C44.4764802,91.3316075 45.1438222,91.550475 45.477543,91.8993106 C45.8112637,92.2481462 47.8861793,92.0292787 51.7022897,91.2427081 C53.4247898,91.8984157 53.6014947,92.5553165 52.2324045,93.2134106 C50.8633142,93.8715046 49.3952811,94.058253 47.8283052,93.7736557 L48.3086801,94.8738601 C51.9588715,95.0246112 53.7839672,94.8789315 53.7839672,94.4368212 C53.7839672,93.7736557 56.3241626,95.6653033 54.2782835,96.3881328 C52.9143642,96.8700192 51.1137042,97.1258784 48.8763036,97.1557104 L48.3086801,98.5959997 L53.2732432,98.5959997 C53.9426735,99.3746151 53.5957272,100.02903 52.2324045,100.559244 C50.8690817,101.089458 49.1196333,101.089458 46.9840594,100.559244 L46.5500036,101.667503 L50.4383075,102.150782 C49.6911152,103.546721 48.677523,104.080714 47.397531,103.752761 C45.477543,103.260831 37.1460599,103.573962 35.207576,100.559244 C33.2690922,97.5445267 33.8257574,93.1871584 35.733216,91.8993106 C37.6406746,90.6114628 39.4649389,88.6881933 42.0012191,88.6881933 C43.6920726,88.6881933 45.0717035,88.1254622 46.1401119,87 C47.7550426,87.7131839 47.8916732,88.5985979 46.5500036,89.656242 C45.2083341,90.7138861 44.1835052,91.2427081 43.4755169,91.2427081 Z" id="Path-30" fill="#FBDCC2"></path>
            </g>
        </g>
    </g>
</svg>