<?xml version="1.0" encoding="UTF-8"?>
<svg width="327px" height="72px" viewBox="0 0 327 72" version="1.1" xmlns="http://www.w3.org/2000/svg" xmlns:xlink="http://www.w3.org/1999/xlink">
    <!-- Generator: Sketch 59.1 (86144) - https://sketch.com -->
    <title>HalloDorf Logo</title>
    <desc>Created with Sketch.</desc>
    <g id="Page-1" stroke="none" stroke-width="1" fill="none" fill-rule="evenodd">
        <g id="HalloDorf-Logo" transform="translate(0.000000, 0.000000)">
            <text id="HalloDorf-Copy-2" font-family="HelveticaNeue-Bold, Helvetica Neue" font-size="62" font-weight="bold" line-spacing="25" letter-spacing="-1.67764706" fill="#767676">
                <tspan x="61" y="106">HalloDorf</tspan>
            </text>
            <path d="M33.6368991,53.4081053 L23.8542179,36.4396842 L40.8619952,19.5789474 L67.7610771,19.5789474 L33.6368991,53.4081053 Z M53.1594707,55.4736842 L40.8619952,55.4736842 L46.3260769,50.0568421 L53.1594707,55.4736842 Z M10.1413477,16.3157895 L16.4579578,8.48747368 L16.4579578,16.3157895 L10.1413477,16.3157895 Z M35.1543339,16.0123158 L23.0411888,28.0174737 L23.0411888,6.52631579 L27.9786121,6.52631579 L35.1543339,16.0123158 Z M78.7484896,15.066 C78.2382892,13.8455789 77.0401412,13.0526316 75.7070369,13.0526316 L41.1450741,13.0526316 L32.2577123,1.30526316 C31.6388885,0.482947368 30.6612787,0 29.6244199,0 L16.4579578,0 C15.4605983,0 14.5126131,0.453578947 13.8904977,1.22368421 L0.724035729,17.5394737 C-0.0692436071,18.5249474 -0.223949536,19.8628421 0.325750253,20.9918947 C0.872158427,22.1209474 2.02751547,22.8421053 3.29149582,22.8421053 L16.4579578,22.8421053 L16.4579578,35.8947368 C16.4579578,36.4625263 16.6093721,37.0205263 16.8924511,37.5132632 L30.0589131,60.3553684 C30.6448207,61.3702105 31.7343454,62 32.9160354,62 L62.5405749,62 C63.9395115,62 65.1870338,61.1222105 65.6478599,59.8169474 C66.1086861,58.5116842 65.6906509,57.0530526 64.5978346,56.1883158 L51.0100458,45.4133684 L78.0342091,18.6195789 C78.9789027,17.6895789 79.25869,16.2864211 78.7484896,15.066 L78.7484896,15.066 Z" id="Fill-182-Copy-2" fill="#7AACA2" fill-rule="evenodd" transform="translate(39.500000, 31.000000) scale(-1, 1) translate(-39.500000, -31.000000) "></path>
        </g>
    </g>
</svg>