<?xml version="1.0" encoding="UTF-8"?>
<svg width="68px" height="69px" viewBox="0 0 68 69" version="1.1" xmlns="http://www.w3.org/2000/svg" xmlns:xlink="http://www.w3.org/1999/xlink">
    <!-- Generator: Sketch 59.1 (86144) - https://sketch.com -->
    <title>Home</title>
    <desc>Created with Sketch.</desc>
    <defs>
        <linearGradient x1="50%" y1="11.394109%" x2="50%" y2="100%" id="linearGradient-1">
            <stop stop-color="#C0AD9C" offset="0%"></stop>
            <stop stop-color="#4C4036" offset="100%"></stop>
        </linearGradient>
        <path d="M9.1,2.13333333 L15,10 L15,10 L0,10 L5.9,2.13333333 C6.5627417,1.24967773 7.8163444,1.07059163 8.7,1.73333333 C8.85161133,1.84704183 8.9862915,1.981722 9.1,2.13333333 Z" id="path-2"></path>
        <linearGradient x1="50%" y1="0%" x2="50%" y2="69.9086782%" id="linearGradient-4">
            <stop stop-color="#9F9284" offset="0%"></stop>
            <stop stop-color="#66594D" offset="100%"></stop>
        </linearGradient>
    </defs>
    <g id="Page-1" stroke="none" stroke-width="1" fill="none" fill-rule="evenodd">
        <g id="Home">
            <g id="Haus-und-Garten">
                <g id="Haus-und-Garten-Copy">
                    <circle id="Oval" fill="#E4F5F0" cx="34" cy="34" r="34"></circle>
                    <path d="M3,49.0161384 C8.3340772,60.7972769 20.2007917,69 33.9945272,69 C52.7752451,69 68,53.8028723 68,35.0562345 C68,34.7019465 67.9840599,34.3516362 67.9733004,34 C46.9447677,34.0962624 37.4091549,48.8458892 3,48.8458892 L3,49.0161384 Z" id="Shape" fill="#AED3D5"></path>
                    <polygon id="Triangle-Copy-16" fill="#CAE3DD" points="51 12 61 42 41 42"></polygon>
                    <polygon id="Triangle-Copy-17" fill="#AED3D5" points="58.5 18 67 43 50 43"></polygon>
                    <path d="M62.8404548,38.6099633 C47.9694472,38.6814898 26.6503227,58.8536475 5.84045483,60.5061429 C11.901838,66.1389844 20.0725456,69.6099633 29.0846567,69.6099633 C47.0266682,69.6099633 61.6983612,55.9167849 62.8404548,38.6099633 Z" id="Shape" fill="#CAE3DD" transform="translate(34.340455, 54.109963) rotate(15.000000) translate(-34.340455, -54.109963) "></path>
                    <g id="Group-12" transform="translate(9.000000, 14.000000)">
                        <polygon id="Rectangle-Copy-27" fill="#FFF1E1" points="4.00793651 26.5989669 8.54199735 21 20 21 20 34 4 34"></polygon>
                        <polygon id="Rectangle-Copy-28" fill="#FFF1E1" transform="translate(41.000000, 27.500000) scale(-1, 1) translate(-41.000000, -27.500000) " points="33.0079365 26.5989669 37.5419974 21 49 21 49 34 33 34"></polygon>
                        <path d="M29.1724138,2.28103448 L47,21 L47,21 L7,21 L24.8275862,2.28103448 C25.9702443,1.08124347 27.8691745,1.0349281 29.0689655,2.17758621 C29.1042841,2.21122292 29.1387771,2.24571593 29.1724138,2.28103448 Z" id="Triangle-Copy-14" fill="url(#linearGradient-1)"></path>
                        <path d="M10,21 L4.86855045,25.8944726 C4.12456392,26.6041009 3.13589628,27 2.10774832,27 L1.85474822,27 C1.52645856,27 1.2603272,26.7338686 1.2603272,26.405579 C1.2603272,26.2136181 1.35302879,26.0334729 1.50922956,25.9218919 L8.39932217,21 L8.39932217,21 L10,21 Z" id="Path-5-Copy" fill="#4C4036"></path>
                        <rect id="Rectangle-Copy-29" fill="#40514E" x="20" y="21" width="13" height="13"></rect>
                        <rect id="Rectangle-Copy-30" fill="#D8D8D8" x="24" y="28" width="5" height="6"></rect>
                        <rect id="Rectangle-Copy-31" fill="#40514E" x="8" y="24" width="4" height="10"></rect>
                        <rect id="Rectangle-Copy-32" fill="#40514E" x="42" y="24" width="4" height="10"></rect>
                        <g id="Rectangle-+-Rectangle-Copy-13-+-Rectangle-Copy-5-+-Rectangle-Copy-6-+-Rectangle-Copy-7-+-Rectangle-Copy-10-+-Rectangle-Copy-8-+-Rectangle-Copy-11-+-Rectangle-Copy-9-+-Rectangle-Copy-12-Mask-Copy" transform="translate(19.000000, 1.000000)">
                            <mask id="mask-3" fill="white">
                                <use xlink:href="#path-2"></use>
                            </mask>
                            <use id="Mask" fill="#40514E" xlink:href="#path-2"></use>
                            <g mask="url(#mask-3)">
                                <g transform="translate(0.937500, 1.000000)">
                                    <path d="M13.125,8 L13.125,8 L13.125,8 L0,8 C2.97311493,4.37563133 8.32143211,3.84768586 11.9458008,6.82080078 C12.3766208,7.17420782 12.771593,7.56918 13.125,8 Z" id="Mask" fill="#2C4033"></path>
                                    <rect id="Rectangle" fill="#FFFFFF" x="1.78977273" y="2.46153846" width="1" height="6.24175824"></rect>
                                    <rect id="Rectangle-Copy-13" fill="#FFFFFF" x="0.497159091" y="2.46153846" width="1" height="6.24175824"></rect>
                                    <rect id="Rectangle-Copy-5" fill="#FFFFFF" x="4.27556818" y="0.351648352" width="1" height="8.43956044"></rect>
                                    <rect id="Rectangle-Copy-6" fill="#FFFFFF" x="9.34659091" y="0.351648352" width="1" height="8.43956044"></rect>
                                    <rect id="Rectangle-Copy-7" fill="#FFFFFF" x="6.86079545" y="0.351648352" width="1" height="8.43956044"></rect>
                                    <rect id="Rectangle-Copy-10" fill="#FFFFFF" x="11.9318182" y="0.351648352" width="1" height="8.43956044"></rect>
                                    <rect id="Rectangle-Copy-8" fill="#FFFFFF" x="3.08238636" y="0.351648352" width="1" height="8.43956044"></rect>
                                    <rect id="Rectangle-Copy-11" fill="#FFFFFF" x="8.15340909" y="0.351648352" width="1" height="8.43956044"></rect>
                                    <rect id="Rectangle-Copy-9" fill="#FFFFFF" x="5.56818182" y="0.351648352" width="1" height="8.43956044"></rect>
                                    <rect id="Rectangle-Copy-12" fill="#FFFFFF" x="10.6392045" y="0.351648352" width="1" height="8.43956044"></rect>
                                </g>
                            </g>
                        </g>
                        <path d="M44,21 L45.0470842,21 L50.9680297,26.109464 C51.1799464,26.2923369 51.203491,26.6123771 51.0206181,26.8242938 C50.9243416,26.9358608 50.7842738,27 50.636909,27 C49.7704557,27 48.9459421,26.6269769 48.3739168,25.9761862 L44,21 L44,21 Z" id="Path-6-Copy" fill="#4C4036"></path>
                        <rect id="Rectangle-Copy-33" fill="#40514E" x="17" y="22" width="2" height="4"></rect>
                        <rect id="Rectangle-Copy-34" fill="#40514E" x="34" y="22" width="2" height="4"></rect>
                        <polygon id="Path-Copy-5" fill="url(#linearGradient-4)" points="19.8624642 10 18 12 36 12 33.7505253 10"></polygon>
                    </g>
                </g>
            </g>
            <g id="sprout-copy" transform="translate(12.000000, 40.000000)">
                <path d="M0.11064873,5.11064131 C-0.23223588,6.608945 0.223091505,8.30595791 1.45852151,9.5414699 C2.69395151,10.7769819 4.39104718,11.2322268 5.88935127,10.8893423 C6.23223588,9.39103863 5.7769085,7.69402572 4.54147849,6.45851373 C3.30604849,5.22300174 1.60895282,4.76779795 0.11064873,5.11064131 L0.11064873,5.11064131 Z" id="Shape" fill="#E8F2C7"></path>
                <path d="M0,5.11275743 L5.88727282,11 L5.88727282,11 C6.23659955,9.47355361 5.77271747,7.74470758 4.51403427,6.48594699 C3.25535108,5.2271864 1.5264123,4.76339056 0,5.11275743 L0,5.11275743 L0,5.11275743 Z" id="Shape" fill="#E4F9F5"></path>
                <path d="M2.97237362,3.02762829 C3.79606182,3.85128397 4.92736018,4.15480776 5.92624177,3.92624535 C6.15480375,2.92736191 5.85131458,1.79602738 5.02762638,0.972371707 C4.20393818,0.148716033 3.07260576,-0.154807758 2.07375823,0.0737546481 C1.84519625,1.07263809 2.14868542,2.20397262 2.97237362,3.02762829 Z" id="Shape" fill="#E8F2C7"></path>
                <path d="M9.16238618,3.01813841 C8.9338242,4.01702186 9.23731337,5.14835638 10.0610016,5.97201206 C10.8846898,6.79566773 12.0159881,7.09919152 13.0148697,6.87062911 C13.2434317,5.87174567 12.9399425,4.74041114 12.1162543,3.91675547 C11.2925661,3.0930998 10.1612337,2.789576 9.16238618,3.01813841 L9.16238618,3.01813841 Z" id="Shape-Copy-6" fill="#E8F2C7" transform="translate(11.088628, 4.944384) rotate(-88.000000) translate(-11.088628, -4.944384) "></path>
                <path d="M5.92485485,4 C6.15771463,2.98233844 5.84851876,1.82973584 5.00934222,0.990630873 C4.17016569,0.151525908 3.0176295,-0.157738557 2,0.0751553159 L5.92485485,4 Z" id="Shape" fill="#E4F9F5"></path>
                <path d="M21.0276264,17.0276283 C20.2039722,17.851284 19.0726398,18.1548078 18.0737582,17.9262454 C17.8451962,16.9273619 18.1486854,15.7960274 18.9723736,14.9723717 C19.7960618,14.148716 20.9273942,13.8451922 21.9262418,14.0737546 C22.1548038,15.0726381 21.8513146,16.2039726 21.0276264,17.0276283 Z" id="Shape" fill="#F7746C"></path>
                <path d="M20.3591521,16.6650357 C19.535498,17.4886914 18.4041655,17.7922152 17.405284,17.5636528 C17.176722,16.5647693 17.4802111,15.4334348 18.3038993,14.6097791 C19.1275875,13.7861235 20.25892,13.4825997 21.2577675,13.7111621 C21.4863295,14.7100455 21.1828403,15.84138 20.3591521,16.6650357 Z" id="Shape-Copy-3" fill="#F8B5AD" transform="translate(19.331526, 15.637407) rotate(-25.000000) translate(-19.331526, -15.637407) "></path>
                <path d="M19.4756364,16.5606014 C18.6519823,17.384257 17.5206499,17.6877808 16.5217683,17.4592184 C16.2932063,16.460335 16.5966954,15.3290004 17.4203836,14.5053448 C18.2440719,13.6816891 19.3754043,13.3781653 20.3742518,13.6067277 C20.6028138,14.6056112 20.2993246,15.7369457 19.4756364,16.5606014 Z" id="Shape-Copy-4" fill="#F8B5AD" transform="translate(18.448010, 15.532973) rotate(-48.000000) translate(-18.448010, -15.532973) "></path>
                <path d="M19.4756364,16.5606014 C18.6519823,17.384257 17.5206499,17.6877808 16.5217683,17.4592184 C16.2932063,16.460335 16.5966954,15.3290004 17.4203836,14.5053448 C18.2440719,13.6816891 19.3754043,13.3781653 20.3742518,13.6067277 C20.6028138,14.6056112 20.2993246,15.7369457 19.4756364,16.5606014 Z" id="Shape-Copy-4" fill="#F7746C" transform="translate(18.448010, 15.532973) rotate(-48.000000) translate(-18.448010, -15.532973) "></path>
                <path d="M18.0276264,17.0276283 C17.2039722,17.851284 16.0726398,18.1548078 15.0737582,17.9262454 C14.8451962,16.9273619 15.1486854,15.7960274 15.9723736,14.9723717 C16.7960618,14.148716 17.9273942,13.8451922 18.9262418,14.0737546 C19.1548038,15.0726381 18.8513146,16.2039726 18.0276264,17.0276283 Z" id="Shape-Copy-5" fill="#F8B5AD" transform="translate(17.000000, 16.000000) rotate(-76.000000) translate(-17.000000, -16.000000) "></path>
                <path d="M9.07514515,7 C8.84228537,5.98234195 9.15148124,4.82974333 9.99065778,3.99064126 C10.8298343,3.15153919 11.9823705,2.84224109 13,3.07516886 L9.07514515,7 Z" id="Shape" fill="#E4F9F5"></path>
                <path d="M13.5414784,12.5414773 C12.3060071,13.7769457 10.6089525,14.2322309 9.11064833,13.889347 C8.76776369,12.3910463 9.22309111,10.6940368 10.4585624,9.45852722 C11.6940336,8.22301767 13.3910471,7.76777362 14.8893513,8.11065747 C15.2322359,9.60895819 14.7769085,11.3059677 13.5414784,12.5414773 Z" id="Shape" fill="#E8F2C7"></path>
                <path d="M9.11272797,14 C8.7633988,12.4735482 9.22728412,10.744696 10.4859761,9.485931 C11.74471,8.22720788 13.473577,7.7634104 15,8.11273657 L9.11272797,14 Z" id="Shape" fill="#E4F9F5"></path>
                <path d="M12.8926182,9.84272148 C12.7494495,9.70832339 12.5174646,9.70832339 12.3742958,9.84272148 L7.86842444,14.0725976 L7.86842444,8.16399257 L10.8766293,5.34007338 C11.0197981,5.20567528 11.0197981,4.98790203 10.8766293,4.85350393 C10.7334606,4.71910583 10.5014757,4.71910583 10.3583069,4.85350393 L7.86842444,7.19089266 L7.86842444,6.69407185 C7.86842444,5.68316272 7.44909111,4.73270935 6.68757281,4.01780346 L4.64546641,2.10079857 C4.50229764,1.96640048 4.27031276,1.96640048 4.127144,2.10079857 C3.98397524,2.23519667 3.98397524,2.45296992 4.127144,2.58736802 L6.1692504,4.50437291 C6.79229196,5.0892463 7.13534889,5.86694666 7.13534889,6.69407185 L7.13534889,11.3271033 L2.62569898,7.09356318 C2.48253022,6.95916508 2.25054533,6.95916508 2.10737657,7.09356318 C1.96420781,7.22796127 1.96420781,7.44573453 2.10737657,7.58013262 L7.13534889,12.3002032 L7.13534889,17.6558972 C7.13534889,17.8459177 7.2994864,18 7.50190743,18 C7.70432846,18 7.86846596,17.8459177 7.86846596,17.6558972 L7.86846596,15.0456585 L12.8926598,10.329252 C13.035787,10.1948539 13.035787,9.97715856 12.8926182,9.84272148 L12.8926182,9.84272148 Z" id="Shape" fill="#7AACA2"></path>
                <path d="M23.3742958,19.4115308 L18.8684244,21.7908361 L18.8684244,18.4672458 C18.8684244,18.4672458 19.4244352,19 20.3170302,18.2952595 C20.8754131,17.8543932 21.8766293,16.8787913 21.8766293,16.8787913 C22.0197981,16.8031923 22.0197981,15.9161896 21.8766293,15.8405906 C21.7334606,15.7649917 20.8570371,16.6391329 20.7138684,16.7147318 C20.7138684,16.7147318 20.1893437,16.9685213 19.3315257,17.3734872 C18.9640275,17.5469789 18.8684244,17.9198771 18.8684244,17.9198771 L18.6550376,17.3734872 C18.1353489,16.8787913 18.372138,17.1168664 17.6106197,16.7147318 L15.9032471,16.1350144 C15.7600783,16.0594155 15.4473318,15.5618085 15.304163,15.6374074 C15.1609943,15.7130064 15.3439367,16.3102293 15.4871055,16.3858282 L15.9032471,17.1196977 C17.4882291,18.766654 18.1353489,18.0019879 18.1353489,18.4672458 L18.1353489,20.2464956 L13.625699,17.8651293 C13.4825302,17.7895304 13.2505453,17.7895304 13.1073766,17.8651293 C12.9642078,17.9407282 12.9642078,18.0632257 13.1073766,18.1388246 L18.1353489,20.7938643 L18.1353489,23.8064422 C18.1353489,23.9133287 18.2994864,24 18.5019074,24 C18.7043285,24 18.868466,23.9133287 18.868466,23.8064422 L18.868466,22.3381829 L23.8926598,19.6852042 C24.035787,19.6096053 24.035787,19.4871517 23.8926182,19.4115308 C23.7494495,19.3359319 23.5174646,19.3359319 23.3742958,19.4115308 Z" id="Shape-Copy-2" fill="#7AACA2"></path>
                <path d="M7.5,18 C5.25084583,18 3.25427447,18.3928361 2,19 L13,19 C11.7457255,18.3928361 9.74915417,18 7.5,18 Z" id="Shape" fill="#99C4C7"></path>
            </g>
        </g>
    </g>
</svg>