<?xml version="1.0" encoding="UTF-8"?>
<svg width="23px" height="24px" viewBox="0 0 23 24" version="1.1" xmlns="http://www.w3.org/2000/svg" xmlns:xlink="http://www.w3.org/1999/xlink">
    <!-- Generator: Sketch 59.1 (86144) - https://sketch.com -->
    <title>Homeicon</title>
    <desc>Created with Sketch.</desc>
    <g id="Page-1" stroke="none" stroke-width="1" fill="none" fill-rule="evenodd">
        <g id="Homeicon" transform="translate(1.000000, 1.000000)" stroke="#7AACA2">
            <g id="Homebutton-Copy">
                <path d="M19.32,10.1538462 L19.32,21.5179476 C19.32,21.7841778 19.1071741,22 18.84464,22 L14.0622902,22 C13.7997561,22 13.5869302,21.7841778 13.5869302,21.5179476 L13.5869302,16.9069047 L13.5869302,16.9069047 C12.7450775,15.2438894 11.7265801,14.4123817 10.5314381,14.4123817 C9.33629617,14.4123817 8.2737471,15.2438894 7.34379094,16.9069047 L7.34379094,21.5179476 C7.34379094,21.7841778 7.13096502,22 6.86843096,22 L2.15535998,22 C1.89282591,22 1.68,21.7841778 1.68,21.5179476 L1.68,10.1538462 L1.68,10.1538462" id="Path" stroke-width="2"></path>
                <path d="M0,11.8461538 L9.86207181,0.427047056 C10.0425652,0.218057203 10.3583037,0.19495623 10.5672936,0.375449588 C10.5825132,0.388593971 10.596926,0.402644583 10.6104533,0.417524851 L21,11.8461538 L21,11.8461538" id="Path-6" stroke-width="2" stroke-linecap="round"></path>
            </g>
        </g>
    </g>
</svg>