<?xml version="1.0" encoding="UTF-8"?>
<svg width="25px" height="29px" viewBox="0 0 25 29" version="1.1" xmlns="http://www.w3.org/2000/svg" xmlns:xlink="http://www.w3.org/1999/xlink">
    <!-- Generator: Sketch 59.1 (86144) - https://sketch.com -->
    <title>Post icon</title>
    <desc>Created with Sketch.</desc>
    <g id="Page-1" stroke="none" stroke-width="1" fill="none" fill-rule="evenodd">
        <g id="Post-icon" transform="translate(1.000000, -1.000000)">
            <g>
                <polygon id="Triangle" fill="#7AACA2" transform="translate(14.785714, 10.214286) rotate(-135.000000) translate(-14.785714, -10.214286) " points="14.7857143 8.35714286 15.7142857 12.0714286 13.8571429 12.0714286"></polygon>
                <g id="Group-6" transform="translate(14.000000, 0.000000)" fill="#7AACA2">
                    <ellipse id="Oval" transform="translate(3.666667, 7.391891) rotate(-46.000000) translate(-3.666667, -7.391891) " cx="3.66666667" cy="7.39189113" rx="1.83333333" ry="3.20833333"></ellipse>
                    <ellipse id="Oval-Copy-6" transform="translate(7.258090, 4.125000) rotate(-46.000000) translate(-7.258090, -4.125000) " cx="7.25809047" cy="4.125" rx="1.83333333" ry="3.20833333"></ellipse>
                    <polygon id="Rectangle" transform="translate(6.341424, 5.041667) rotate(43.000000) translate(-6.341424, -5.041667) " points="4.50809047 2.75 8.17475713 2.75 8.17475713 7.33333333 4.50809047 7.33333333"></polygon>
                </g>
                <polyline id="Path-Copy" stroke="#7AACA2" stroke-width="2" stroke-linejoin="bevel" points="13.0007706 3.7476176 0 3.7476176 0 28.7476176 19.7959761 28.7476176 19.7959761 12.283894"></polyline>
                <line x1="6" y1="13" x2="12" y2="13" id="Line-Copy" stroke="#7AACA2" stroke-width="2" stroke-linecap="round"></line>
                <line x1="5" y1="18" x2="14" y2="18" id="Line-2-Copy" stroke="#7AACA2" stroke-width="2" stroke-linecap="round"></line>
                <line x1="7" y1="23" x2="12" y2="23" id="Line-3-Copy" stroke="#7AACA2" stroke-width="2" stroke-linecap="round"></line>
            </g>
        </g>
    </g>
</svg>