<?xml version="1.0" encoding="UTF-8"?>
<svg width="17px" height="12px" viewBox="0 0 17 12" version="1.1" xmlns="http://www.w3.org/2000/svg" xmlns:xlink="http://www.w3.org/1999/xlink">
    <!-- Generator: Sketch 59.1 (86144) - https://sketch.com -->
    <title>bar-chart-2</title>
    <desc>Created with Sketch.</desc>
    <defs>
        <path d="M12,8 C12.55,8 13,8.45 13,9 L13,9 L13,20 C13,20.55 12.55,21 12,21 C11.45,21 11,20.55 11,20 L11,20 L11,9 C11,8.45 11.45,8 12,8 Z M17,4 C17.55,4 18,4.45 18,5 L18,5 L18,20 C18,20.55 17.55,21 17,21 C16.45,21 16,20.55 16,20 L16,20 L16,5 C16,4.45 16.45,4 17,4 Z M7,12 C7.55,12 8,12.45 8,13 L8,13 L8,20 C8,20.55 7.55,21 7,21 C6.45,21 6,20.55 6,20 L6,20 L6,13 C6,12.45 6.45,12 7,12 Z" id="path-1"></path>
    </defs>
    <g id="Page-1" stroke="none" stroke-width="1" fill="none" fill-rule="evenodd">
        <g id="Artboard" transform="translate(-1150.000000, -1845.000000)">
            <g id="bar-chart-2" transform="translate(1159.000000, 1851.000000) scale(-1, 1) rotate(-90.000000) translate(-1159.000000, -1851.000000) translate(1147.000000, 1839.000000)">
                <mask id="mask-2" fill="white">
                    <use xlink:href="#path-1"></use>
                </mask>
                <use id="🎨-Icon-Сolor" fill="#FFFFFF" fill-rule="evenodd" xlink:href="#path-1"></use>
            </g>
        </g>
    </g>
</svg>