<?xml version="1.0" encoding="UTF-8"?>
<svg width="20px" height="20px" viewBox="0 0 20 20" version="1.1" xmlns="http://www.w3.org/2000/svg" xmlns:xlink="http://www.w3.org/1999/xlink">
    <!-- Generator: Sketch 59.1 (86144) - https://sketch.com -->
    <title>star</title>
    <desc>Created with Sketch.</desc>
    <defs>
        <path d="M11.9995468,16.05 C12.1585468,16.05 12.3175468,16.088 12.4625468,16.163 L16.2315468,18.133 L15.5145468,13.976 C15.4575468,13.65 15.5665468,13.318 15.8045468,13.087 L18.8405468,10.151 L14.6375468,9.539 C14.3125468,9.492 14.0315468,9.289 13.8855468,8.995 L11.9995468,5.201 L10.1135468,8.995 C9.96754683,9.289 9.68654683,9.492 9.36154683,9.539 L5.15854683,10.151 L8.19454683,13.087 C8.43254683,13.318 8.54154683,13.65 8.48454683,13.976 L7.76754683,18.133 L11.5365468,16.163 C11.6815468,16.088 11.8405468,16.05 11.9995468,16.05 M17.5615468,20.955 C17.4025468,20.955 17.2435468,20.918 17.0985468,20.842 L11.9995468,18.178 L6.90054683,20.842 C6.56254683,21.018 6.15454683,20.987 5.84954683,20.763 C5.54154683,20.539 5.38854683,20.16 5.45254683,19.785 L6.42454683,14.157 L2.30454683,10.172 C2.02954683,9.907 1.93154683,9.509 2.04854683,9.146 C2.16454683,8.783 2.47854683,8.519 2.85554683,8.464 L8.55654683,7.636 L11.1035468,2.51 C11.4415468,1.83 12.5575468,1.83 12.8955468,2.51 L15.4425468,7.636 L21.1435468,8.464 C21.5205468,8.519 21.8345468,8.783 21.9505468,9.146 C22.0675468,9.509 21.9695468,9.907 21.6945468,10.172 L17.5745468,14.157 L18.5465468,19.785 C18.6105468,20.16 18.4575468,20.539 18.1495468,20.763 C17.9765468,20.891 17.7695468,20.955 17.5615468,20.955" id="path-1"></path>
    </defs>
    <g id="Page-1" stroke="none" stroke-width="1" fill="none" fill-rule="evenodd">
        <g id="Artboard" transform="translate(-2107.000000, -1795.000000)">
            <g id="star" transform="translate(2105.030612, 1793.500000)">
                <mask id="mask-2" fill="white">
                    <use xlink:href="#path-1"></use>
                </mask>
                <use id="🎨-Icon-Сolor" fill="#7AACA2" fill-rule="evenodd" xlink:href="#path-1"></use>
            </g>
        </g>
    </g>
</svg>