<?xml version="1.0" encoding="UTF-8"?>
<svg width="68px" height="68px" viewBox="0 0 68 68" version="1.1" xmlns="http://www.w3.org/2000/svg" xmlns:xlink="http://www.w3.org/1999/xlink">
    <!-- Generator: Sketch 59.1 (86144) - https://sketch.com -->
    <title>Dorf Illu Copy</title>
    <desc>Created with Sketch.</desc>
    <defs>
        <path d="M1.21754753,6.67150895 L1.81887768,5.38585905 L3.11263192,6.67150895 L3.6685527,4.9853808 L4.92597945,6.23400732 L5.55152792,4.9853808 L6.58741198,5.82844487 C6.46870547,1.99339631 5.06798693,0.075872033 2.38525637,0.075872033 C-0.297474185,0.075872033 -0.686710465,2.27441767 1.21754753,6.67150895 Z" id="path-1"></path>
    </defs>
    <g id="Symbols" stroke="none" stroke-width="1" fill="none" fill-rule="evenodd">
        <g id="Wappen-Seestermuehe">
            <g id="Dorf-Illu-Copy">
                <circle id="Oval" fill="#E4F5F0" cx="34" cy="34" r="34"></circle>
                <path d="M54.1159898,7 C39.0785176,11.0296376 28,24.7905844 28,41.1542192 C28,51.8984988 32.7814533,61.5160569 40.3175736,68 C56.073372,65.0380771 68,51.1683076 68,34.4943216 C68,23.20766 62.5331312,13.2062254 54.1159898,7 Z" id="Shape" fill="#FFFFF4" opacity="0.300000012"></path>
                <path d="M47,40.6681212 C47,48.2146131 52.4732054,54.5117468 59.7595821,56 C64.8984759,50.0525958 68,42.376708 68,33.991346 C68,31.04809 67.6180274,28.1918991 66.9006476,25.4668401 C65.6707754,25.1729285 64.3924204,25 63.0695545,25 C54.1946156,25 47,32.0147535 47,40.6681212 Z" id="Shape" fill="#FFFFF4" opacity="0.400000006"></path>
                <path d="M22,18 C22,16.840291 23.2053766,15.9000219 24.692378,15.9000219 C24.916778,15.9000219 25.1313359,15.9276576 25.3397073,15.9680143 C26.0422929,15.3762611 27.0383139,15 28.1538462,15 C30.2780535,15 32,16.3430692 32,17.9998903 L22,17.9998903 L22,18 Z" id="Shape" fill="#FFFFFF" opacity="0.600000024"></path>
                <path d="M22,8 C22,6.84019162 22.9642835,5.90001228 24.1538268,5.90001228 C24.3333543,5.90001228 24.5050709,5.92765017 24.671748,5.96806289 C25.2337638,5.3762437 26.0306142,5 26.9230866,5 C28.6223622,5 30,6.34320108 30,8 L22,8 Z" id="Shape" fill="#FFFFFF" opacity="0.600000024"></path>
                <path d="M53,12 C53,10.8402834 52.1561569,9.90003059 51.1153529,9.90003059 C50.9581961,9.90003059 50.8080392,9.92771207 50.6621373,9.96808728 C50.1703529,9.37637643 49.473098,9 48.6922549,9 C47.2053725,9.00015294 46,10.3432402 46,12 L53,12 Z" id="Shape" fill="#FFFFFF" opacity="0.600000024"></path>
                <path d="M14.3081395,57 L46,40.2596229 L45.1976744,38.5520079 C37.5240988,38.5520079 24.2080349,30.8587723 0,33.5843886 C0,41.9941419 3.1247907,49.6793326 8.28240698,55.5897801 C11.5219302,56.3529843 14.3081395,57 14.3081395,57 Z" id="Shape" fill="#E8F2C7"></path>
                <path d="M43.9528034,39.409372 C39.3531705,38 23.3136471,36.7103539 20.300486,38 C16,39.8406267 13.5740668,37.5833057 12.9554965,37 C7.37719738,31.7397191 3,33 0,33.5843886 C7.73766731,35.5843886 6.4336744,38.9155726 11,41.4242477 C12.5563389,42.2792784 17.4842455,43.8747688 22.454527,40.9472415 C24.1699753,39.9368316 29.14302,40.4129117 30,41.3862408 C30.8738042,42.3786783 38.4504813,42 39.8544983,42 L41.440939,41.4242477 L44,39.5086751 L43.9528034,39.409372 Z" id="Shape" fill="#AED3D5"></path>
                <path d="M23.9999487,15.6 C23.6851539,15.6 23.3877185,15.6495353 23.1025851,15.7214872 C22.1994806,14.6828868 20.7012319,14 19,14 C17.2987681,14 15.8005194,14.6828868 14.8974149,15.7214872 C14.6122815,15.6495353 14.3148461,15.6 14.0000513,15.6 C12.3432433,15.6 11,16.6744669 11,18 L27,18 C26.9998633,16.6745763 25.6567567,15.6 23.9999487,15.6 Z" id="Shape" fill="#FFFFFF"></path>
                <path d="M46.8125,13 C46.4780781,13 46.1619844,13.062 45.8590391,13.151875 C44.8994687,11.853625 43.3077109,11 41.5,11 C39.6922891,11 38.1005313,11.853625 37.1409609,13.151875 C36.8380156,13.062 36.5219219,13 36.1875,13 C34.4270703,13 33,14.343125 33,16 L50,16 C50,14.343125 48.5729297,13 46.8125,13 Z" id="Shape" fill="#FFFFFF"></path>
                <path d="M24,10 C24,8.45365042 25.5669436,7.19998909 27.500021,7.19998909 C27.7917008,7.19998909 28.0706988,7.23686148 28.3416515,7.2907519 C29.2548723,6.50170453 30.5497724,6 31.9999895,6 C34.7613338,6 37,7.79082008 37,10 L24,10 Z" id="Shape" fill="#FFFFFF"></path>
                <path d="M3,48.0161384 C8.3340772,59.7972769 20.2007917,68 33.9945272,68 C52.7752451,68 68,52.8028723 68,34.0562345 C68,33.7019465 67.9840599,33.3516362 67.9733004,33 C46.9447677,33.0962624 37.4091549,47.8458892 3,47.8458892 L3,48.0161384 Z" id="Shape" fill="#AED3D5"></path>
                <path d="M68,37 C53.1289924,37.0715265 31.8098679,57.2436842 11,58.8961796 C17.0613832,64.5290211 25.2320908,68 34.2442018,68 C52.1862134,68 66.8579064,54.3068216 68,37 Z" id="Shape" fill="#7AACA2"></path>
                <circle id="Oval" fill-opacity="0.38" fill="#ECF8F0" cx="29" cy="65" r="1"></circle>
                <circle id="Oval" fill="#ECF8F0" cx="31" cy="49" r="1"></circle>
                <circle id="Oval" fill="#ECF8F0" cx="54" cy="37" r="1"></circle>
                <circle id="Oval" fill="#ECF8F0" cx="39" cy="61" r="1"></circle>
                <circle id="Oval" fill="#ECF8F0" opacity="0.59" cx="59" cy="52" r="1"></circle>
                <g id="Wappen-Copy-2" transform="translate(13.000000, 11.000000)">
                    <g id="schachbrettblume-copy" transform="translate(0.000000, 2.000000)">
                        <g id="Group-2" transform="translate(5.000000, 6.000000)">
                            <mask id="mask-2" fill="white">
                                <use xlink:href="#path-1"></use>
                            </mask>
                            <use id="Mask" fill="#F28677" xlink:href="#path-1"></use>
                            <g mask="url(#mask-2)">
                                <g transform="translate(3.617789, 3.599854) rotate(-13.000000) translate(-3.617789, -3.599854) translate(-1.382211, -1.400146)">
                                    <polygon id="Rectangle" fill="#F28677" transform="translate(3.668493, 2.320099) rotate(54.000000) translate(-3.668493, -2.320099) " points="2.80595905 1.57796769 4.57001599 1.53225636 4.53102691 3.06222979 2.76696998 3.10794112"></polygon>
                                    <polygon id="Rectangle-Copy-39" fill="#F28677" transform="translate(5.910463, 5.006787) rotate(54.000000) translate(-5.910463, -5.006787) " points="5.04792896 4.2646564 6.81198589 4.21894507 6.77299682 5.7489185 5.00893989 5.79462983"></polygon>
                                    <polygon id="Rectangle-Copy-35" fill="#F28677" transform="translate(3.492743, 4.578866) rotate(54.000000) translate(-3.492743, -4.578866) " points="2.63020891 3.83673537 4.39426585 3.79102404 4.35527677 5.32099747 2.59121984 5.3667088"></polygon>
                                    <polygon id="Rectangle-Copy-40" fill="#F28677" transform="translate(5.734713, 7.265555) rotate(54.000000) translate(-5.734713, -7.265555) " points="4.87217882 6.52342408 6.63623576 6.47771275 6.59724668 8.00768618 4.83318975 8.05339751"></polygon>
                                    <polygon id="Rectangle-Copy-36" fill="#F28677" transform="translate(1.182159, 3.967980) rotate(54.000000) translate(-1.182159, -3.967980) " points="0.319625187 3.22584865 2.08368212 3.18013732 2.04469305 4.71011075 0.280636112 4.75582208"></polygon>
                                    <polygon id="Rectangle-Copy-41" fill="#F28677" transform="translate(3.424129, 6.654668) rotate(54.000000) translate(-3.424129, -6.654668) " points="2.56159509 5.91253736 4.32565203 5.86682603 4.28666295 7.39679946 2.52260602 7.44251079"></polygon>
                                    <polygon id="Rectangle-Copy-4" fill="#FFFFFF" transform="translate(4.728636, 3.713444) rotate(54.000000) translate(-4.728636, -3.713444) " points="3.86610254 2.97131251 5.63015947 2.92560118 5.5911704 4.45557462 3.82711346 4.50128594"></polygon>
                                    <polygon id="Rectangle-Copy-42" fill="#FFFFFF" transform="translate(6.970606, 6.400132) rotate(54.000000) translate(-6.970606, -6.400132) " points="6.10807244 5.65800122 7.87212938 5.61228989 7.8331403 7.14226333 6.06908337 7.18797465"></polygon>
                                    <polygon id="Rectangle-Copy-37" fill="#FFFFFF" transform="translate(2.418053, 3.153464) rotate(54.000000) translate(-2.418053, -3.153464) " points="1.55551881 2.41133302 3.31957574 2.36562169 3.28058667 3.89559512 1.51652973 3.94130645"></polygon>
                                    <polygon id="Rectangle-Copy-43" fill="#FFFFFF" transform="translate(4.660023, 5.840153) rotate(54.000000) translate(-4.660023, -5.840153) " points="3.79748872 5.09802173 5.56154565 5.0523104 5.52255658 6.58228383 3.75849964 6.62799516"></polygon>
                                    <polygon id="Rectangle-Copy-38" fill="#FFFFFF" transform="translate(2.256849, 5.393382) rotate(54.000000) translate(-2.256849, -5.393382) " points="1.39431529 4.65125099 3.15837223 4.60553967 3.11938315 6.1355131 1.35532622 6.18122443"></polygon>
                                    <polygon id="Rectangle-Copy-44" fill="#FFFFFF" transform="translate(4.498819, 8.080071) rotate(54.000000) translate(-4.498819, -8.080071) " points="3.6362852 7.3379397 5.40034213 7.29222838 5.36135306 8.82220181 3.59729613 8.86791314"></polygon>
                                    <polygon id="Rectangle-Copy-24" fill="#F28677" transform="translate(5.964530, 2.848021) rotate(54.000000) translate(-5.964530, -2.848021) " points="5.10199616 2.10588966 6.86605309 2.06017833 6.82706402 3.59015176 5.06300708 3.63586309"></polygon>
                                    <polygon id="Rectangle-Copy-45" fill="#F28677" transform="translate(8.206500, 5.534709) rotate(54.000000) translate(-8.206500, -5.534709) " points="7.34396607 4.79257837 9.108023 4.74686704 9.06903392 6.27684047 7.30497699 6.3225518"></polygon>
                                    <polygon id="Rectangle-Copy-3" fill="#FFFFFF" transform="translate(4.943574, 1.473526) rotate(54.000000) translate(-4.943574, -1.473526) " points="4.08104056 0.731394535 5.84509749 0.685683206 5.80610842 2.21565664 4.04205148 2.26136797"></polygon>
                                    <polygon id="Rectangle-Copy-46" fill="#FFFFFF" transform="translate(7.185545, 4.160215) rotate(54.000000) translate(-7.185545, -4.160215) " points="6.32301123 3.41808361 8.08706721 3.37237231 8.04807814 4.90234574 6.28402215 4.94805704"></polygon>
                                </g>
                            </g>
                        </g>
                        <path d="M2.16345682,18.6999046 C1.14457628,17.0701006 0.493994672,15.336799 0.211712002,13.5 C-0.0705706674,11.663201 -0.0705706674,9.16320098 0.211712002,6 C1.73216997,11.8582485 2.58282314,15.7198367 2.7636715,17.5847646 C2.94451987,19.4496925 3.02157374,20.5881043 2.99483309,21 L2.16345682,21 L2.16345682,18.6999046 Z" id="Path-8" fill-opacity="0.652070586" fill="#43868B"></path>
                        <path d="M1.6250457,14.7822916 C1.59498681,5.18966829 1.40999673,0.307396035 1.07007548,0.135474875 C0.560193591,-0.122406864 3,-0.579243818 3,4.88330795 C3,8.52500912 3,13.7684059 3,20.6134981 L1.6250457,21 L1.6250457,14.7822916 Z" id="Path-9" fill="#A6CDD1"></path>
                        <path d="M5.94538416,6 C6.26188505,6 5.14207931,4 4.15115256,4 C3.1602258,4 1.19409298,6 2.35692095,6 C2.56113484,6 3.38890726,4.47686633 4.15115256,4.56074429 C5.00326091,4.65451083 5.50749493,6 5.94538416,6 Z" id="Oval" fill="#A6CDD1"></path>
                    </g>
                    <g id="Goppelschauer" transform="translate(9.818182, 0.000000)">
                        <polygon id="Path-3" fill="#F7746C" points="2.88888889 28.9315488 2.88888889 37.5581152 12.4098602 39.898539 27.2826122 39.8828273 37.5555556 37.5581152 37.5555556 28.8739427 27.2826122 30.6963169 12.4098602 29.8843605"></polygon>
                        <polygon id="Rectangle" fill="#7AACA2" points="12.8686869 31.1070698 27.0505051 30.9738658 27.0505051 39.898539 12.8686869 39.898539"></polygon>
                        <path d="M0.262626263,29.5786429 L12.1110703,31.4988465 L26.9742395,31.4988465 L39.6565657,29.5497019 L25.0555088,8.62237529 C22.8433978,5.45181243 18.4798785,4.67483365 15.3093156,6.88694462 C14.54907,7.41737026 13.9017507,8.09351588 13.4049301,8.87613596 L0.262626263,29.5786429 L0.262626263,29.5786429 Z" id="Path-4" fill="#40514E"></path>
                        <rect id="Rectangle" fill="#E7F5C7" x="17.5959596" y="33.5987697" width="4.2020202" height="6.29976931" rx="1"></rect>
                        <line x1="3.47667148" y1="28.8083201" x2="5.97787398" y2="24.7397191" id="Line-4" stroke-opacity="0.450256774" stroke="#FFFFFF" stroke-linecap="round"></line>
                        <line x1="12.3434343" y1="29.3989234" x2="13.3939394" y2="24.6740965" id="Line-4-Copy-5" stroke-opacity="0.450256774" stroke="#FFFFFF" stroke-linecap="round"></line>
                        <line x1="17.8512981" y1="29.5811979" x2="17.4468966" y2="24.4590895" id="Line-4-Copy-7" stroke-opacity="0.450256774" stroke="#FFFFFF" stroke-linecap="round" transform="translate(17.649097, 27.020144) rotate(3.000000) translate(-17.649097, -27.020144) "></line>
                        <line x1="21.7979798" y1="29.3989234" x2="21.2727273" y2="18.8993079" id="Line-4-Copy-6" stroke-opacity="0.450256774" stroke="#FFFFFF" stroke-linecap="round"></line>
                        <line x1="7.15656566" y1="23.0385794" x2="8.14141414" y2="21.5242118" id="Line-4-Copy" stroke-opacity="0.450256774" stroke="#FFFFFF" stroke-linecap="round"></line>
                        <line x1="5.05555556" y1="29.3383487" x2="6.04040404" y2="27.8239811" id="Line-4-Copy-2" stroke-opacity="0.450256774" stroke="#FFFFFF" stroke-linecap="round"></line>
                        <line x1="7.15656566" y1="26.1884641" x2="8.14141414" y2="24.6740965" id="Line-4-Copy-3" stroke-opacity="0.450256774" stroke="#FFFFFF" stroke-linecap="round"></line>
                        <line x1="19.766135" y1="22.0491926" x2="19.6278044" y2="19.9492695" id="Line-4-Copy-8" stroke-opacity="0.450256774" stroke="#FFFFFF" stroke-linecap="round"></line>
                        <line x1="9.25757576" y1="23.0385794" x2="10.2424242" y2="21.5242118" id="Line-4-Copy-4" stroke-opacity="0.450256774" stroke="#FFFFFF" stroke-linecap="round"></line>
                        <path d="M5.51515152,34.1254139 L9.52838914,35.173712 L9.71717172,33.4265486 C9.26304144,32.1414139 8.56270474,31.4988465 7.61616162,31.4988465 C6.19634694,31.4988465 5.87159242,32.0075854 5.69337197,32.0075854 C5.57455833,32.0075854 5.51515152,32.7135282 5.51515152,34.1254139 Z" id="Path-5" fill="#E7F5C7"></path>
                        <path d="M30.5505643,34.3099297 L34.4133618,35.3208969 L34.5950568,33.6359931 C34.157943,32.3966445 33.4838563,31.7769702 32.5727968,31.7769702 C31.2062075,31.7769702 30.8936303,32.2675701 30.7220909,32.267569 C30.6077398,32.2675683 30.5505643,32.9483552 30.5505643,34.3099297 Z" id="Path-5-Copy-2" fill="#E7F5C7" transform="translate(32.572811, 33.548934) scale(-1, 1) rotate(-2.000000) translate(-32.572811, -33.548934) "></path>
                    </g>
                </g>
            </g>
        </g>
    </g>
</svg>