<?xml version="1.0" encoding="UTF-8"?>
<svg width="69px" height="69px" viewBox="0 0 69 69" version="1.1" xmlns="http://www.w3.org/2000/svg" xmlns:xlink="http://www.w3.org/1999/xlink">
    <!-- Generator: Sketch 59.1 (86144) - https://sketch.com -->
    <title>Werkzeug1</title>
    <desc>Created with Sketch.</desc>
    <defs>
        <circle id="path-1" cx="34" cy="34" r="34"></circle>
    </defs>
    <g id="Page-1" stroke="none" stroke-width="1" fill="none" fill-rule="evenodd">
        <g id="Werkzeug1" transform="translate(-4.000000, 0.000000)">
            <g id="Elektro-Copy-3">
                <g id="Elektro-Icon">
                    <g id="Shape" transform="translate(4.000000, 0.000000)">
                        <mask id="mask-2" fill="white">
                            <use xlink:href="#path-1"></use>
                        </mask>
                        <use id="Mask" fill="#E4F5F0" xlink:href="#path-1"></use>
                        <path d="M48.1826501,42.1171728 C48.1826501,49.6636647 53.6558555,55.9607984 60.9422322,57.4490516 C66.081126,51.5016473 69.1826501,43.8257596 69.1826501,35.4403976 C69.1826501,32.4971416 68.8006775,29.6409507 68.0832977,26.9158917 C66.8534255,26.6219801 65.5750705,26.4490516 64.2522046,26.4490516 C55.3772658,26.4490516 48.1826501,33.4638051 48.1826501,42.1171728 Z" fill="#FFFFF4" opacity="0.515141375" mask="url(#mask-2)" transform="translate(58.682650, 41.949052) rotate(10.000000) translate(-58.682650, -41.949052) "></path>
                    </g>
                    <path d="M59.1159898,7 C44.0785176,11.0296376 33,24.7905844 33,41.1542192 C33,51.8984988 37.7814533,61.5160569 45.3175736,68 C61.073372,65.0380771 73,51.1683076 73,34.4943216 C73,23.20766 67.5331312,13.2062254 59.1159898,7 Z" id="Shape" fill="#FFFFF4" opacity="0.300000012"></path>
                    <path d="M3.31764223,48.0667945 C8.65171944,59.847933 20.5184339,68.0506561 34.3121695,68.0506561 C53.0928873,68.0506561 68.3176422,52.8535284 68.3176422,34.1068906 C68.3176422,33.7526025 68.3017022,33.4022923 68.2909426,33.0506561 C47.2624099,33.1469185 37.7267971,47.8965453 3.31764223,47.8965453 L3.31764223,48.0667945 Z" id="Shape" fill-opacity="0.18" fill="#AED3D5" transform="translate(35.817642, 50.550656) rotate(14.000000) translate(-35.817642, -50.550656) "></path>
                </g>
            </g>
            <g id="lawn-mower-copy" transform="translate(15.000000, 19.000000)">
                <path d="M29.8214476,18 L21.1785524,18 C20.5276874,18 20,17.552258 20,17 L20,17 C20,16.447742 20.5276874,16 21.1785524,16 L29.8214476,16 C30.4723126,16 31,16.447742 31,17 L31,17 C31.000089,17.552258 30.4723126,18 29.8214476,18 L29.8214476,18 Z" id="Shape" fill="#5B5D6E"></path>
                <path d="M1.72538138,4.61544164 C1.42697928,4.27550463 1.44499666,3.75965022 1.76682135,3.44104425 L3.94778211,1.28074456 C4.2436103,0.987633869 4.2436103,0.51282685 3.94778211,0.219801147 C3.65195391,-0.0732245554 3.17252005,-0.0733095397 2.87669186,0.219801147 L0.695731105,2.38010085 C-0.186262466,3.25373896 -0.235938952,4.66821686 0.582564809,5.60015417 L15.8572692,23 L17,22.0152875 L1.72538138,4.61544164 L1.72538138,4.61544164 Z" id="Shape" fill="#707487"></path>
                <path d="M31.918649,18 L19.081436,18 C18.3978834,18 17.7514564,18.3314001 17.3244696,18.9006797 L15,22 L36,22 L33.6755304,18.9006797 C33.2486286,18.3314001 32.6021166,18 31.918649,18 L31.918649,18 Z" id="Shape" fill="#7AACA2"></path>
                <polygon id="Rectangle-path" fill="#99C4C7" points="12 21 39 21 39 28 12 28"></polygon>
                <polygon id="Rectangle-path" fill="#7AACA2" points="12 27 39 27 39 28 12 28"></polygon>
                <circle id="Oval" fill="#D7DEED" cx="39.5" cy="24.5" r="3.5"></circle>
                <path d="M31.3334487,17 L19.6666457,17 C18.7461015,17 18,16.2849395 18,15.402896 L18,11.5972908 C18,10.6454146 18.863435,9.90484539 19.8507168,10.0099561 L30.7760437,11.1732297 C32.0420752,11.3080102 33,12.3335182 33,13.5542317 L33,15.4028055 C33.0000944,16.2849395 32.2538041,17 31.3334487,17 L31.3334487,17 Z" id="Shape" fill="#F8B5AD"></path>
                <path d="M39.5,29 C37.0185391,29 35,27.205743 35,25 C35,22.794257 37.0185391,21 39.5,21 C41.9814609,21 44,22.794257 44,25 C44,27.205743 41.9813759,29 39.5,29 L39.5,29 Z M39.5,22.3333837 C37.8457494,22.3333837 36.4999717,23.5296305 36.4999717,25.0000755 C36.4999717,26.4705205 37.8457494,27.6667674 39.5,27.6667674 C41.1542506,27.6667674 42.5000283,26.4705205 42.5000283,25.0000755 C42.5000283,23.5296305 41.1541656,22.3333837 39.5,22.3333837 L39.5,22.3333837 Z" id="Shape" fill="#5B5D6E"></path>
                <circle id="Oval" fill="#C7CFE2" cx="39" cy="24" r="1"></circle>
                <circle id="Oval" fill="#D7DEED" cx="12.5" cy="24.5" r="3.5"></circle>
                <path d="M12.5,29 C10.0185391,29 8,27.205743 8,25 C8,22.794257 10.0185391,21 12.5,21 C14.9814609,21 17,22.794257 17,25 C17,27.205743 14.9813759,29 12.5,29 L12.5,29 Z M12.5,22.3333837 C10.8457494,22.3333837 9.49997168,23.5296305 9.49997168,25.0000755 C9.49997168,26.4705205 10.8457494,27.6667674 12.5,27.6667674 C14.1542506,27.6667674 15.5000283,26.4705205 15.5000283,25.0000755 C15.4999434,23.5296305 14.1540807,22.3333837 12.5,22.3333837 L12.5,22.3333837 Z" id="Shape" fill="#5B5D6E"></path>
                <circle id="Oval" fill="#C7CFE2" cx="12" cy="24" r="1"></circle>
                <circle id="Oval" fill="#464655" cx="26" cy="16" r="1"></circle>
            </g>
        </g>
    </g>
</svg>