<?xml version="1.0" encoding="UTF-8"?>
<svg width="69px" height="69px" viewBox="0 0 69 69" version="1.1" xmlns="http://www.w3.org/2000/svg" xmlns:xlink="http://www.w3.org/1999/xlink">
    <!-- Generator: Sketch 59.1 (86144) - https://sketch.com -->
    <title>Werkzeug2</title>
    <desc>Created with Sketch.</desc>
    <defs>
        <circle id="path-1" cx="34" cy="34" r="34"></circle>
        <path d="M2.90513834,7.39117409 L2.90513834,11.655313 C2.90513834,12.1263168 2.51493592,12.5081408 2.03359684,12.5081408 C1.55225776,12.5081408 1.16205534,12.1263168 1.16205534,11.655313 L1.16205534,7.39117409 L0.581027668,7.39117409 C0.260134948,7.39117409 0,7.13662475 0,6.82262224 L0,0.568551853 C0,0.254549335 0.260134948,0 0.581027668,0 L9.00592885,0 C11.0917315,0 12.7826087,1.65457068 12.7826087,3.69558704 C12.7826087,5.38832222 11.6195621,6.81524604 10.0327615,7.25293993 L12.1963585,15.7443259 C12.2739895,16.0490012 12.084514,16.3575704 11.7731532,16.4335345 L9.52115631,16.982977 C9.20978866,17.0589427 8.89444158,16.8735316 8.81680891,16.5688496 C8.80940805,16.5398038 8.80436299,16.5102313 8.80172077,16.4804081 C8.61446334,14.3667929 8.40499416,12.8553507 8.17331324,11.9460815 C7.9402816,11.0315112 7.38167914,9.53659349 6.49750585,7.46132847 C6.48766531,7.43816901 6.47948326,7.41474395 6.47292771,7.39117409 L2.90513834,7.39117409 Z" id="path-3"></path>
        <path d="M6.69565217,3.91447368 C5.90056245,3.91447368 5.22415607,3.44764047 4.97347304,2.79605263 L0.608695652,2.79605263 C0.272522326,2.79605263 0,2.54568555 0,2.23684211 C0,1.92799866 0.272522326,1.67763158 0.608695652,1.67763158 L4.97347304,1.67763158 C5.22415607,1.02604374 5.90056245,0.559210526 6.69565217,0.559210526 L6.69565217,0 L7.30434783,0 L7.30434783,4.47368421 L6.69565217,4.47368421 L6.69565217,3.91447368 Z" id="path-5"></path>
    </defs>
    <g id="Page-1" stroke="none" stroke-width="1" fill="none" fill-rule="evenodd">
        <g id="Werkzeug2" transform="translate(-4.000000, 0.000000)">
            <g id="Elektro-Copy-3">
                <g id="Elektro-Icon">
                    <g id="Shape" transform="translate(4.000000, 0.000000)">
                        <mask id="mask-2" fill="white">
                            <use xlink:href="#path-1"></use>
                        </mask>
                        <use id="Mask" fill="#E4F5F0" xlink:href="#path-1"></use>
                        <path d="M48.1826501,42.1171728 C48.1826501,49.6636647 53.6558555,55.9607984 60.9422322,57.4490516 C66.081126,51.5016473 69.1826501,43.8257596 69.1826501,35.4403976 C69.1826501,32.4971416 68.8006775,29.6409507 68.0832977,26.9158917 C66.8534255,26.6219801 65.5750705,26.4490516 64.2522046,26.4490516 C55.3772658,26.4490516 48.1826501,33.4638051 48.1826501,42.1171728 Z" fill="#FFFFF4" opacity="0.515141375" mask="url(#mask-2)" transform="translate(58.682650, 41.949052) rotate(10.000000) translate(-58.682650, -41.949052) "></path>
                    </g>
                    <path d="M59.1159898,7 C44.0785176,11.0296376 33,24.7905844 33,41.1542192 C33,51.8984988 37.7814533,61.5160569 45.3175736,68 C61.073372,65.0380771 73,51.1683076 73,34.4943216 C73,23.20766 67.5331312,13.2062254 59.1159898,7 Z" id="Shape" fill="#FFFFF4" opacity="0.300000012"></path>
                    <path d="M3.31764223,48.0667945 C8.65171944,59.847933 20.5184339,68.0506561 34.3121695,68.0506561 C53.0928873,68.0506561 68.3176422,52.8535284 68.3176422,34.1068906 C68.3176422,33.7526025 68.3017022,33.4022923 68.2909426,33.0506561 C47.2624099,33.1469185 37.7267971,47.8965453 3.31764223,47.8965453 L3.31764223,48.0667945 Z" id="Shape" fill-opacity="0.18" fill="#AED3D5" transform="translate(35.817642, 50.550656) rotate(14.000000) translate(-35.817642, -50.550656) "></path>
                </g>
            </g>
            <g id="pruning-shears-copy-2" transform="translate(41.000000, 28.500000) scale(-1, 1) rotate(49.000000) translate(-41.000000, -28.500000) translate(32.000000, 19.000000)">
                <path d="M12.9770247,1.17955616 L12.8534622,0 L8.99999982,5.52528494 L5.1465374,0 L5.02297497,1.17955616 C4.9260447,2.01988556 5.13766001,2.86611823 5.62298727,3.57893716 L8.01803451,6.93329735 L6.41974413,9.22502815 L7.79235958,10 L8.99999982,8.30854666 L10.2077302,9.99995783 L11.5803456,9.22498598 L9.98205526,6.93325519 L12.3771025,3.57889499 C12.8623396,2.86607606 13.0739549,2.01988556 12.9770247,1.17955616 L12.9770247,1.17955616 Z" id="Shape" fill="#5B5D6E"></path>
                <path d="M6.70337714,9 L0.12047239,17.9719876 C-0.107626302,18.2834626 -0.00226290548,18.6967805 0.35575495,18.8952019 C0.713772806,19.0936233 1.18895302,19.0019685 1.41705171,18.6905314 L8,9.71850588 L6.70337714,9 L6.70337714,9 Z" id="Shape" fill="#E1BE8C"></path>
                <path d="M7.18986312,10.9463064 L6.14354308,10.209788 C5.99910798,10.1080815 5.95656094,9.89628345 6.04861152,9.73661972 L6.38189086,9.15860051 C6.47394144,8.99901441 6.66563152,8.95200425 6.81013688,9.05371079 L7.85645692,9.79022916 C8.00089202,9.89193569 8.04343906,10.1037337 7.95138848,10.2633975 L7.61810914,10.8414167 C7.52605856,11.0010028 7.33429821,11.0479741 7.18986312,10.9463064 L7.18986312,10.9463064 Z" id="Shape" fill="#AFB9D2"></path>
                <path d="M11.2966229,9 L17.8795276,17.9719876 C18.1076263,18.2834626 18.0022629,18.6967805 17.644245,18.8952019 C17.2862272,19.0936233 16.811047,19.0019685 16.5829483,18.6905314 L10,9.71854376 L11.2966229,9 L11.2966229,9 Z" id="Shape" fill="#E1BE8C"></path>
                <path d="M10.8101369,10.9463064 L11.8564569,10.209788 C12.000892,10.1080815 12.0434391,9.89628345 11.9513885,9.73661972 L11.6181091,9.15860051 C11.5260586,8.99901441 11.3343685,8.95200425 11.1898631,9.05371079 L10.1435431,9.79022916 C9.99910798,9.89193569 9.95656094,10.1037337 10.0486115,10.2633975 L10.3818909,10.8414167 C10.4739414,11.0010028 10.6657018,11.0479741 10.8101369,10.9463064 L10.8101369,10.9463064 Z" id="Shape" fill="#AFB9D2"></path>
                <circle id="Oval" fill="#707487" cx="9" cy="8" r="1"></circle>
                <circle id="Oval" fill="#5B5D6E" cx="9.5" cy="6.5" r="1"></circle>
            </g>
            <g id="Group-21-Copy-2" transform="translate(49.000000, 20.500000) rotate(-11.000000) translate(-49.000000, -20.500000) translate(38.000000, 12.000000)">
                <g id="shape">
                    <g id="Rectangle" transform="translate(8.217391, 0.000000)">
                        <mask id="mask-4" fill="white">
                            <use xlink:href="#path-3"></use>
                        </mask>
                        <use id="Mask" fill="#7AACA2" xlink:href="#path-3"></use>
                        <polygon fill="#40514E" mask="url(#mask-4)" transform="translate(9.586957, 12.526316) rotate(-5.000000) translate(-9.586957, -12.526316) " points="4.55644548 7.14831837 14.5983941 7.16580239 14.6174676 17.9043132 4.57551896 17.8868292"></polygon>
                    </g>
                    <g id="Rectangle" transform="translate(0.000000, 1.789474)">
                        <mask id="mask-6" fill="white">
                            <use xlink:href="#path-5"></use>
                        </mask>
                        <use id="Mask" fill="#7AACA2" xlink:href="#path-5"></use>
                        <rect fill="#848484" mask="url(#mask-6)" x="-2.73913043" y="-0.894736842" width="7.30434783" height="8.05263158"></rect>
                    </g>
                </g>
                <polygon id="Rectangle" fill="#F8B5AD" points="10 0 17 0 14.4532224 6.93419181 10 7"></polygon>
            </g>
            <g id="Group-22-Copy-2" transform="translate(31.000000, 17.500000) scale(1, -1) rotate(-90.000000) translate(-31.000000, -17.500000) translate(17.000000, 5.000000)">
                <g id="saw" transform="translate(14.070193, 12.260643) rotate(-38.000000) translate(-14.070193, -12.260643) translate(-0.429807, 8.260643)">
                    <polygon id="Shape" fill="#AFB9D2" points="1.79707899 5.85293886 1.79707899 7.27386754 2.39714927 7.74747467 2.99673359 7.27386754 3.59604791 7.74747467 4.19530824 7.27386754 4.79478456 7.74747467 5.39463886 7.27386754 5.99519512 7.74747467 6.59666933 7.27386754 7.19927748 7.74747467 7.80085969 7.27386754 8.40179393 7.74747467 9.00240419 7.27386754 9.60312244 7.74747467 10.2042187 7.27386754 10.8063409 7.74747467 11.409057 7.27386754 12.0109092 7.74747467 12.6123294 7.27386754 13.2141276 7.74747467 13.8168437 7.27386754 14.4194519 7.74747467 15.0215201 7.27386754 15.6240202 7.74747467 16.2272224 7.27386754 16.8297225 7.74747467 17.4329786 7.27386754 18.0335349 7.74747467 18.636899 7.27386754 19.2388592 7.74747467 19.8408734 7.27386754 20.4448855 7.74747467 21.0479256 7.27386754 21.6516677 7.74747467 22.2561657 7.27386754 22.8598538 7.74747467 23.4644059 7.27386754 24.0706318 7.74747467 24.6769118 7.27386754 24.6769118 5.85293886"></polygon>
                    <path d="M23.9764136,7.6383729 C23.8020142,7.6383729 23.6351176,7.5430332 23.55647,7.38108699 L20.8132473,1.72362476 C20.5859615,1.25480387 20.0918298,0.951767019 19.5542558,0.951767019 L5.45004608,0.951767019 C4.91252449,0.951767019 4.41839289,1.25480387 4.19105457,1.72362476 L1.4478319,7.38103649 C1.33948812,7.60393345 1.06382795,7.70013162 0.832239828,7.59651029 C0.60044184,7.49248497 0.500282864,7.22691743 0.608364316,7.00402047 L3.35158699,1.34660874 C3.7306066,0.565206927 4.55422924,0.0602296671 5.44999362,0.0602296671 L19.5542558,0.0602296671 C20.4500726,0.0602296671 21.2736428,0.565257424 21.6527149,1.34660874 L24.3959376,7.00407097 C24.504019,7.22696793 24.40386,7.49253547 24.172062,7.59656079 C24.1086822,7.62483951 24.0419446,7.6383729 23.9764136,7.6383729 L23.9764136,7.6383729 Z" id="Shape" fill="#959CB3"></path>
                    <path d="M27.661376,5.28229079 L27.661376,1.71709406 L28.0801379,0.869683791 C28.1525833,0.723047584 28.1447872,0.548672292 28.0595604,0.409011097 C27.9742807,0.269349902 27.8236622,0.184201105 27.661323,0.184201105 L20.6395311,0.184683991 C20.422354,0.184683991 20.2337627,0.335934436 20.1839632,0.549638063 C20.1341636,0.763288036 20.2360962,0.983966675 20.4304153,1.08199242 C20.9157357,1.32713725 21.2972672,1.73968236 21.5622285,2.30213657 L23.4908877,6.53940251 C23.5672577,6.70728568 23.7334684,6.81507644 23.9161198,6.81507644 L27.6614821,6.81507644 C27.8237682,6.81507644 27.9744398,6.72992764 28.0597195,6.59026645 C28.1449993,6.45060525 28.1527424,6.2761763 28.080297,6.12959375 L27.661376,5.28229079 L27.661376,5.28229079 Z M26.2569116,5.86786985 L26.1057097,5.86786985 C25.9143075,5.86786985 25.7421039,5.7499385 25.6710374,5.57014416 L24.1729137,1.78104955 C24.0499263,1.46991037 24.2763844,1.131515 24.607586,1.131515 L26.2569646,1.131515 C26.5155087,1.131515 26.7251548,1.34360901 26.7251548,1.60517195 L26.7251548,5.39426656 C26.7250487,5.6558295 26.5154557,5.86786985 26.2569116,5.86786985 L26.2569116,5.86786985 Z" id="Shape" fill="#E1BE8C"></path>
                    <ellipse id="Oval" fill="#E4EAF6" cx="22.0193473" cy="0.711994231" rx="1" ry="1"></ellipse>
                    <ellipse id="Oval" fill="#E4EAF6" cx="23.3175874" cy="5.28415154" rx="1" ry="1"></ellipse>
                </g>
            </g>
            <g id="barrow-copy" transform="translate(13.000000, 27.000000)">
                <path d="M24.7718176,21.810798 L19.2084148,27.2927699 C18.8902723,27.6064682 18.5018808,27.5033622 18.3899714,27.466298 C18.2785322,27.4270435 17.9144974,27.2680042 17.9144974,26.8446293 L17.9144974,20.8210139 L22.895407,20.8210139 L22.895407,19.3338107 L17.533065,19.3338107 L4.40373909,1.34669602 C3.78842537,0.503652688 2.74898435,0 1.62424767,0 L1,0 L1,1.48720325 L1.62424767,1.48720325 C2.18689813,1.48720325 2.70657162,1.738819 3.0142755,2.16076185 L16.2541943,20.2989976 L16.2541943,26.8447978 C16.2541943,27.7415843 16.8577528,28.5302948 17.7916792,28.8533435 C18.0774714,28.9521534 18.3730439,29 18.665231,29 C19.3267191,29 19.969587,28.7538596 20.4365972,28.2934205 L26,22.8114487 L24.7718176,21.810798 L24.7718176,21.810798 Z" id="Shape" fill="#848484"></path>
                <path d="M14,11 L18.7869089,18.840613 C19.602147,20.1758775 21.1192853,21 22.7624699,21 L34.2374437,21 C35.8806283,21 37.397853,20.1758775 38.2130911,18.840613 L43,11 L14,11 L14,11 Z" id="Shape" fill="#D7DEED"></path>
                <path d="M21.5750782,18.8405321 L16.2471013,11 L12,11 L17.3279769,18.8405321 C18.235362,20.1758775 19.9239836,21 21.7528987,21 L26,21 C24.1710849,21 22.4824633,20.1759584 21.5750782,18.8405321 L21.5750782,18.8405321 Z" id="Shape" fill="#C7CFE2"></path>
                <path d="M44.2142497,11 L12.7857503,11 C12.3518431,11 12,10.5522202 12,10 L12,10 C12,9.44777979 12.3518431,9 12.7857503,9 L44.2142497,9 C44.6481569,9 45,9.44777979 45,10 L45,10 C45,10.5523335 44.6481569,11 44.2142497,11 L44.2142497,11 Z" id="Shape" fill="#C7CFE2"></path>
                <path d="M2.24997876,2 L0.75002124,2 C0.335844354,2 0,1.55230813 0,1.00005664 L0,1.00005664 C0,0.447805154 0.335844354,0 0.75002124,0 L2.24997876,0 C2.66415565,0 3,0.447805154 3,1.00005664 L3,1.00005664 C2.99991504,1.55230813 2.66415565,2 2.24997876,2 L2.24997876,2 Z" id="Shape" fill="#F8B5AD"></path>
                <path d="M35.4704233,20 L33.7022216,20 C33.3144406,20 33,19.7018856 33,19.3333957 C33,18.9649058 33.3144406,18.6667914 33.7022216,18.6667914 L35.4704233,18.6667914 C35.973067,18.6667914 36.4403927,18.409679 36.6896862,17.9949769 L37.6881327,16.3363947 C37.8804721,16.0167599 38.3104118,15.9047782 38.6460909,16.0883436 C38.9828041,16.2712293 39.099735,16.6780784 38.9073956,16.9977133 L37.9089491,18.6562955 C37.4102827,19.4850957 36.4760288,20 35.4704233,20 L35.4704233,20 Z" id="Shape" fill="#E1E6F2"></path>
                <path d="M39.3884916,14 C39.3229916,14 39.2567429,13.9579871 39.1957799,13.8681861 C39.0095434,13.5939135 38.9447923,12.9837646 39.0512573,12.5044105 L39.2735694,11.5047084 C39.3802545,11.0243351 39.6174109,10.8574161 39.8042201,11.1327079 C39.9904566,11.4069804 40.0552077,12.0171293 39.9487427,12.4964835 L39.7264306,13.4961855 C39.6546318,13.819492 39.5234558,14 39.3884916,14 L39.3884916,14 Z" id="Shape" fill="#E7EBF4"></path>
                <path d="M30.5,18 C26.9102321,18 24,20.4624262 24,23.5 C24,26.5375738 26.91014,29 30.5,29 C34.08986,29 37,26.5375738 37,23.5 C37,20.4624262 34.0897679,18 30.5,18 L30.5,18 Z M30.5,26.9374124 C28.2564181,26.9374124 26.4375115,25.3983376 26.4375115,23.4999221 C26.4375115,21.6015066 28.2564181,20.0624319 30.5,20.0624319 C32.7435819,20.0624319 34.5624885,21.6015066 34.5624885,23.4999221 C34.5624885,25.3983376 32.7435819,26.9374124 30.5,26.9374124 L30.5,26.9374124 Z" id="Shape" fill="#40514E"></path>
                <path d="M30.5,27 C32.9852814,27 35,25.209139 35,23 C35,20.790861 32.9852814,19.1508094 30.5,19.1508094 C28.0147186,19.1508094 26,20.790861 26,23 C26,25.209139 28.0147186,27 30.5,27 Z" id="Oval" fill="#99C4C7"></path>
                <circle id="Oval" fill="#7AACA2" cx="28.5" cy="22.5" r="1.5"></circle>
            </g>
        </g>
    </g>
</svg>